<?xml version="1.0" standalone="no"?>
<!DOCTYPE svg PUBLIC "-//W3C//DTD SVG 1.1//EN" "http://www.w3.org/Graphics/SVG/1.1/DTD/svg11.dtd" >
<svg xmlns="http://www.w3.org/2000/svg">
<metadata></metadata>
<defs>
<font id="news_gothic_stdbold" horiz-adv-x="622" >
<font-face units-per-em="1000" ascent="778" descent="-222" />
<missing-glyph horiz-adv-x="311" />
<glyph unicode="fi" horiz-adv-x="587" d="M533 0h-148v437h-163v-437h-148v437h-74v123h74v59q0 27 11 55t36.5 51t66.5 38t100 15h152v-132q-72 0 -115 0.5t-66 -4.5t-30 -19t-7 -43v-20h311v-560z" />
<glyph unicode="fl" horiz-adv-x="587" d="M310 437h-88v-437h-148v437h-74v123h74v59q0 27 11 55t36.5 51t66.5 38t100 15h245v-778h-148v646q-51 0 -83 0.5t-50 -4.5t-24 -19t-6 -43v-20h88v-123z" />
<glyph unicode="&#xd;" horiz-adv-x="311" />
<glyph unicode=" "  horiz-adv-x="311" />
<glyph unicode="&#x09;" horiz-adv-x="311" />
<glyph unicode="&#xa0;" horiz-adv-x="311" />
<glyph unicode="!" horiz-adv-x="247" d="M197 0h-148v148h148v-148zM39 778h169l-23 -541h-123z" />
<glyph unicode="&#x22;" horiz-adv-x="474" d="M424 778v-130l-42 -129h-54l-42 129v130h138zM188 778v-130l-42 -129h-54l-42 129v130h138z" />
<glyph unicode="#" d="M263 329h102l25 120h-102zM349 778l-41 -218h100l42 218h106l-42 -218h72v-111h-91l-23 -120h86v-111h-109l-42 -218h-106l42 218h-101l-42 -218h-106l42 218h-100v111h121l25 120h-105v111h125l41 218h106z" />
<glyph unicode="$" d="M449 576q-23 34 -52.5 54.5t-71.5 20.5q-16 0 -33.5 -4t-32 -13t-24 -22.5t-9.5 -32.5q0 -30 26.5 -52t66.5 -42t86.5 -41.5t86.5 -51t66.5 -70t26.5 -99.5q0 -50 -16 -89t-43.5 -67.5t-65 -47.5t-80.5 -28v-92h-96v92q-81 8 -144 50t-103 113l122 73q26 -46 66 -73 t95 -27q19 0 40 4t38 14t28.5 25.5t11.5 39.5q0 29 -26.5 50t-66.5 41t-86.5 41.5t-86.5 51.5t-66.5 71t-26.5 100q0 46 16 84t43.5 66.5t65 47t80.5 24.5v92h96v-92q60 -17 110.5 -50t78.5 -90z" />
<glyph unicode="%" horiz-adv-x="852" d="M670 778l-394 -778h-94l394 778h94zM196 700q-20 0 -30.5 -11t-15.5 -28t-5.5 -37.5t-0.5 -40.5q0 -18 1.5 -36.5t6.5 -33.5t15.5 -24.5t28.5 -9.5t28.5 9.5t15.5 24.5t6.5 33.5t1.5 36.5q0 20 -0.5 40.5t-5.5 37.5t-15.5 28t-30.5 11zM196 790q49 0 81.5 -18t51.5 -47.5 t26.5 -66.5t7.5 -75q0 -37 -9 -72t-29 -62t-52 -43.5t-77 -16.5t-77 16.5t-52 43.5t-29 62t-9 72q0 38 7.5 75t26.5 66.5t51.5 47.5t81.5 18zM656 299q-20 0 -30.5 -11t-15.5 -28t-5.5 -37.5t-0.5 -40.5q0 -18 1.5 -36.5t6.5 -33.5t15.5 -24.5t28.5 -9.5t28.5 9.5t15.5 24.5 t6.5 33.5t1.5 36.5q0 20 -0.5 40.5t-5.5 37.5t-15.5 28t-30.5 11zM656 389q49 0 81.5 -18t51.5 -47.5t26.5 -66.5t7.5 -75q0 -37 -9 -72t-29 -62t-52 -43.5t-77 -16.5t-77 16.5t-52 43.5t-29 62t-9 72q0 38 7.5 75t26.5 66.5t51.5 47.5t81.5 18z" />
<glyph unicode="&#x26;" horiz-adv-x="713" d="M294 480q20 12 36.5 24t28 25.5t17.5 31t6 40.5q0 26 -16 49t-45 23q-31 0 -48.5 -23t-17.5 -52q0 -36 11 -61.5t28 -56.5zM177 415q-23 38 -38.5 79.5t-15.5 86.5q0 41 12.5 78.5t37 66.5t61 46.5t83.5 17.5q37 0 71 -14t60.5 -39t42.5 -58t16 -72q0 -38 -11 -70.5 t-30 -60.5t-45 -52t-56 -44q28 -42 56.5 -76t60.5 -61q22 32 34.5 64.5t20.5 64.5l125 -28q-21 -96 -76 -176q29 -17 59 -24.5t61 -9.5l-8 -138q-54 -2 -105 15t-97 46q-45 -37 -95 -53t-107 -16q-46 0 -91.5 14.5t-82 41.5t-59 66.5t-22.5 90.5q0 34 9 63t25 53.5t38 45.5 t49 40zM313 111q23 0 41 7t37 20q-46 42 -86 84t-67 84q-23 -16 -34.5 -35.5t-11.5 -48.5q0 -24 10 -44.5t27 -35.5t39 -23t45 -8z" />
<glyph unicode="'" horiz-adv-x="238" d="M188 778v-130l-42 -129h-54l-42 129v130h138z" />
<glyph unicode="(" horiz-adv-x="329" d="M270 755q-15 -48 -30.5 -98.5t-28.5 -107t-21 -119.5t-8 -137t8 -137t21 -119.5t28.5 -107t30.5 -98.5l-107 -35q-50 116 -77 243.5t-27 253.5t27 253.5t77 243.5z" />
<glyph unicode=")" horiz-adv-x="329" d="M166 790q50 -116 77 -243.5t27 -253.5t-27 -253.5t-77 -243.5l-107 35q15 48 30.5 98.5t28.5 107t21 119.5t8 137t-8 137t-21 119.5t-28.5 107t-30.5 98.5z" />
<glyph unicode="*" d="M353 653l116 47l32 -97l-122 -30l81 -95l-83 -61l-66 107l-66 -107l-83 61l81 95l-122 30l32 97l116 -47l-9 125h102z" />
<glyph unicode="+" horiz-adv-x="584" d="M350 493v-192h184v-109h-184v-192h-115v192h-185v109h185v192h115z" />
<glyph unicode="," horiz-adv-x="311" d="M230 6l-85 -164l-61 26l49 132h-51v148h148v-142z" />
<glyph unicode="-" horiz-adv-x="341" d="M302 358v-124h-263v124h263z" />
<glyph unicode="." horiz-adv-x="311" d="M230 0h-148v148h148v-148z" />
<glyph unicode="/" horiz-adv-x="535" d="M587 778l-530 -969h-109l530 969h109z" />
<glyph unicode="0" d="M311 663q-50 0 -77.5 -30.5t-40.5 -74.5t-15.5 -92t-2.5 -84q0 -35 3 -81.5t16.5 -87.5t40.5 -69.5t76 -28.5t76 28.5t40.5 69.5t16.5 87.5t3 81.5q0 36 -2.5 84t-15.5 92t-40.5 74.5t-77.5 30.5zM311 790q66 0 119.5 -25.5t91 -76.5t58 -127.5t20.5 -178.5 q0 -108 -24.5 -183t-65 -122t-92.5 -68t-107 -21t-107 21t-92.5 68t-65 122t-24.5 183q0 102 20.5 178.5t58 127.5t91 76.5t119.5 25.5z" />
<glyph unicode="1" d="M389 123h120v-123h-396v123h120v510h-120v85l164 60h112v-655z" />
<glyph unicode="2" d="M568 0h-513v165q61 76 124.5 130t114.5 98t83.5 85t32.5 92q0 41 -24 69t-66 28q-30 0 -51 -11t-34.5 -29.5t-21 -42.5t-11.5 -50l-147 26q2 56 22.5 99t55.5 72t81.5 44t100.5 15q66 0 114 -18.5t79.5 -49.5t46.5 -72t15 -87q0 -51 -16 -89.5t-42.5 -70.5t-62.5 -61 t-75.5 -60t-81 -67t-79.5 -83h355v-132z" />
<glyph unicode="3" d="M213 463q27 -1 62 1t66 11.5t52 30.5t21 59q0 42 -25.5 72t-67.5 30q-45 0 -73.5 -28.5t-43.5 -68.5l-133 55q35 78 100.5 121.5t152.5 43.5q45 0 88.5 -14.5t78 -41.5t55.5 -66t21 -89q0 -32 -8.5 -57t-23.5 -44.5t-37 -35.5t-49 -29q60 -23 96 -69.5t36 -112.5 q0 -57 -21.5 -102t-58.5 -76.5t-85 -48t-100 -16.5q-48 0 -93.5 14.5t-82.5 41.5t-63 66t-35 88l144 30q15 -52 46 -84.5t89 -32.5q23 0 42.5 8.5t34 23.5t22.5 35.5t8 43.5q0 42 -21.5 67.5t-54 39.5t-70 18t-69.5 3v113z" />
<glyph unicode="4" d="M337 581h-2l-151 -277h153v277zM493 304h97v-123h-97v-181h-156v181h-305v113l279 484h182v-474z" />
<glyph unicode="5" d="M507 646h-312v-162q65 58 151 58q55 0 98.5 -22.5t74.5 -59.5t47.5 -85t16.5 -99q0 -57 -20.5 -109t-57.5 -91.5t-89.5 -63.5t-115.5 -24q-40 0 -80 11.5t-74.5 32.5t-62 51.5t-43.5 68.5l138 55q14 -39 43.5 -67.5t74.5 -28.5q31 0 55 12.5t40 33t24 47t8 55.5 q0 28 -7.5 55.5t-22.5 48.5t-38 34t-55 13q-37 0 -66 -21.5t-39 -56.5l-135 32l12 414h435v-132z" />
<glyph unicode="6" d="M200 322q-1 -29 3.5 -64t17.5 -65.5t36 -51.5t59 -21q30 0 51.5 11t35.5 29.5t21 43.5t7 52q0 23 -6.5 45.5t-19.5 40t-32.5 28.5t-45.5 11q-39 0 -69 -16.5t-58 -42.5zM445 587q-19 33 -41.5 52t-63.5 19q-36 0 -61.5 -18.5t-42 -46.5t-24.5 -61.5t-7 -63.5 q35 20 69 32.5t75 12.5q36 0 77 -14t76.5 -44.5t58.5 -77.5t23 -113q0 -71 -25.5 -123t-64 -86t-83.5 -50.5t-84 -16.5q-55 0 -107 21t-92.5 68t-65 122t-24.5 183q0 104 24 181t65 127.5t95.5 75t115.5 24.5q36 0 70.5 -10t65 -28t56 -43t44.5 -55z" />
<glyph unicode="7" d="M572 693l-305 -693h-174l295 646h-321v132h505v-85z" />
<glyph unicode="8" d="M451 409q25 -17 49 -37t42.5 -43.5t29.5 -51t11 -60.5t-14.5 -72.5t-47 -74.5t-85 -58.5t-129.5 -23.5q-68 0 -118.5 20t-83.5 51.5t-49.5 71t-16.5 78.5q0 33 10.5 63t28.5 56t43 46.5t54 34.5q-49 25 -81 65.5t-32 97.5q0 50 21 90t55 68.5t78 44t91 15.5 q45 0 89.5 -14.5t80 -41.5t58 -66t22.5 -88q0 -29 -8.5 -53.5t-23 -45t-33.5 -38.5t-41 -34zM307 346q-22 -9 -42.5 -22t-36.5 -30t-26 -38t-10 -47q0 -20 9 -37t25 -29.5t37 -19.5t44 -7q22 0 44 6t39.5 18.5t28.5 31t11 43.5q0 26 -11 47t-28.5 37t-39.5 27.5t-44 19.5z M322 470q17 9 32.5 19.5t27.5 23.5t19 30t7 38q0 16 -7.5 30.5t-21 26t-31.5 18t-40 6.5q-17 0 -34 -5.5t-31 -15.5t-23 -24.5t-9 -32.5q0 -23 10.5 -41t26.5 -31.5t36 -24t38 -17.5z" />
<glyph unicode="9" d="M422 456q1 28 -3.5 63.5t-17.5 66t-36 51.5t-59 21q-30 0 -51.5 -11t-35.5 -29.5t-21 -43.5t-7 -52q0 -23 6.5 -45.5t19.5 -40t32.5 -28.5t45.5 -11q39 0 69 16.5t58 42.5zM177 191q19 -33 41.5 -52t63.5 -19q36 0 61.5 18.5t42 46.5t24.5 61.5t7 63.5q-35 -20 -69 -32.5 t-75 -12.5q-36 0 -77 14t-76.5 44.5t-58.5 77.5t-23 113q0 71 25.5 123t64 86t83.5 50.5t84 16.5q55 0 107 -21t92.5 -68t65 -122t24.5 -183q0 -104 -24 -181t-65 -127.5t-95.5 -75t-115.5 -24.5q-36 0 -70.5 10t-65 28t-56 43t-44.5 55z" />
<glyph unicode=":" horiz-adv-x="311" d="M230 412h-148v148h148v-148zM230 0h-148v148h148v-148z" />
<glyph unicode=";" horiz-adv-x="311" d="M230 412h-148v148h148v-148zM230 6l-85 -164l-61 26l49 132h-51v148h148v-142z" />
<glyph unicode="&#x3c;" horiz-adv-x="584" d="M80 184v124l425 170v-108l-306 -123l306 -122v-108z" />
<glyph unicode="=" horiz-adv-x="584" d="M534 180v-109h-484v109h484zM534 422v-109h-484v109h484z" />
<glyph unicode="&#x3e;" horiz-adv-x="584" d="M80 125l306 122l-306 123v108l425 -170v-124l-425 -167v108z" />
<glyph unicode="?" horiz-adv-x="447" d="M255 0h-148v148h148v-148zM23 660q32 60 83 95t120 35q41 0 77 -10.5t63 -32.5t42.5 -54.5t15.5 -77.5q0 -47 -14 -79t-34 -57.5t-44 -47.5t-43 -48.5t-31 -61t-9 -84.5h-134v33q0 43 13 77.5t32.5 63.5t42 53.5t42 48t32.5 46.5t13 49q0 23 -16 41t-40 18q-35 0 -60 -23 t-38 -54z" />
<glyph unicode="@" horiz-adv-x="860" d="M548 584h102l-72 -274q-2 -8 -1 -17t5.5 -17t13 -13t22.5 -5q59 0 92 35t33 96q0 72 -24 130t-66 98.5t-99 62.5t-124 22q-63 0 -120 -22t-100 -62.5t-68 -98.5t-25 -130t25 -130t68 -98.5t100 -62.5t120 -22q69 0 114.5 9.5t76.5 26.5l36 -84q-33 -15 -94 -27.5 t-133 -12.5q-88 0 -161.5 31.5t-127 86t-83 127.5t-29.5 156t29.5 156t83 127.5t127 86t161.5 31.5q87 0 161 -31.5t127 -86t83 -127.5t30 -156q0 -51 -17.5 -91.5t-46.5 -69t-67 -43.5t-80 -15q-36 0 -58.5 6.5t-36 16.5t-21 21.5t-12.5 20.5q-16 -19 -30.5 -31.5t-29 -20 t-30.5 -10.5t-35 -3q-39 0 -68.5 13.5t-50 36t-31 51.5t-10.5 59q0 63 20 113.5t53.5 86t76.5 54.5t90 19q21 0 35.5 -6t24.5 -15t16 -20t11 -22zM322 353q0 -43 13 -69t50 -26q17 0 37.5 16.5t38 42t29.5 56.5t12 60q0 10 -2.5 24t-9.5 27t-19 22t-30 9q-27 0 -49 -13 t-37.5 -35.5t-24 -51.5t-8.5 -62z" />
<glyph unicode="A" horiz-adv-x="634" d="M319 644h-4l-82 -326h168zM642 0h-159l-51 195h-230l-51 -195h-159l218 778h210z" />
<glyph unicode="B" horiz-adv-x="647" d="M210 462q43 0 83.5 -0.5t71.5 7t50 27.5t19 60q0 42 -19.5 62.5t-51 28.5t-72 8h-81.5v-193zM54 0v778h224q94 0 155.5 -15.5t97 -44t49.5 -68t14 -86.5q0 -55 -25 -95t-73 -66q54 -26 83.5 -73t29.5 -106q0 -50 -19.5 -91.5t-53 -71t-79.5 -45.5t-99 -16h-304zM311 123 q18 0 41.5 1t45 11t36.5 33t15 67q0 40 -16 63.5t-47 35t-75 13t-101 -2.5v-221h101z" />
<glyph unicode="C" horiz-adv-x="692" d="M653 245q-18 -121 -94.5 -189t-198.5 -68q-83 0 -143.5 35t-100 92t-58.5 128.5t-19 145.5q0 73 19 145t58.5 129t100 92t143.5 35q121 0 197 -66t96 -191l-148 -20q-6 30 -16 58t-27 49.5t-42 34t-60 12.5q-50 0 -81.5 -29.5t-49 -72t-24 -91t-6.5 -85.5q0 -38 6.5 -86 t24 -90.5t49 -72t81.5 -29.5q35 0 60 12.5t42 34t27 49t16 57.5z" />
<glyph unicode="D" horiz-adv-x="684" d="M286 132q46 0 83 15.5t63 48.5t39.5 85t13.5 126q0 123 -53 181t-163 58h-59v-514h76zM244 778q111 0 187.5 -29.5t124 -82t68.5 -123.5t21 -154q0 -82 -21.5 -153t-65 -123.5t-108.5 -82.5t-152 -30h-244v778h190z" />
<glyph unicode="E" horiz-adv-x="600" d="M538 646h-328v-186h272v-132h-272v-196h347v-132h-503v778h484v-132z" />
<glyph unicode="F" horiz-adv-x="561" d="M538 646h-328v-186h253v-132h-253v-328h-156v778h484v-132z" />
<glyph unicode="G" horiz-adv-x="694" d="M362 268v123h285v-391h-109l-15 55q-33 -37 -78.5 -52t-84.5 -15q-83 0 -143.5 35t-100 92t-58.5 128.5t-19 145.5q0 73 19 145t58.5 129t100 92t143.5 35q57 0 107 -17t88 -48t62 -76t30 -100l-140 -21q-5 28 -15 53.5t-27 44.5t-43 30t-62 11q-50 0 -81.5 -29.5 t-49 -72t-24 -91t-6.5 -85.5q0 -38 6.5 -86t24 -90.5t49 -72t81.5 -29.5q45 0 73 12t43 33.5t19 50t2 61.5h-135z" />
<glyph unicode="H" horiz-adv-x="677" d="M467 474v304h156v-778h-156v342h-257v-342h-156v778h156v-304h257z" />
<glyph unicode="I" horiz-adv-x="264" d="M54 0v778h156v-778h-156z" />
<glyph unicode="J" horiz-adv-x="510" d="M460 240q0 -79 -19 -128t-50.5 -76.5t-72.5 -37.5t-85 -10q-93 0 -153 42t-80 135l154 30q3 -14 9 -29t15.5 -27t23 -20t32.5 -8q70 0 70 100v567h156v-538z" />
<glyph unicode="K" horiz-adv-x="665" d="M448 778h180l-232 -304l261 -474h-178l-188 337l-81 -103v-234h-156v778h156v-325z" />
<glyph unicode="L" horiz-adv-x="557" d="M210 132h324v-132h-480v778h156v-646z" />
<glyph unicode="M" horiz-adv-x="852" d="M542 778h256v-778h-156v620h-2l-144 -620h-140l-144 620h-2v-620h-156v778h256l115 -558h2z" />
<glyph unicode="N" horiz-adv-x="727" d="M282 778l233 -513h2v513h156v-778h-167l-294 625h-2v-625h-156v778h228z" />
<glyph unicode="O" horiz-adv-x="719" d="M360 667q-50 0 -81.5 -29.5t-49 -72t-24 -91t-6.5 -85.5q0 -38 6.5 -86t24 -90.5t49 -72t81.5 -29.5t81.5 29.5t49 72t24 90.5t6.5 86q0 37 -6.5 85.5t-24 91t-49 72t-81.5 29.5zM360 790q83 0 143.5 -35t100 -92t58.5 -129t19 -145q0 -74 -19 -145.5t-58.5 -128.5 t-100 -92t-143.5 -35t-143.5 35t-100 92t-58.5 128.5t-19 145.5q0 73 19 145t58.5 129t100 92t143.5 35z" />
<glyph unicode="P" horiz-adv-x="630" d="M242 430q32 0 68.5 -0.5t67.5 8.5t51.5 31.5t20.5 68.5t-20.5 68.5t-51.5 31.5t-67.5 8.5t-68.5 -0.5h-32v-216h32zM354 778q68 0 116.5 -22.5t79.5 -58t45.5 -79t14.5 -85.5q0 -44 -14.5 -86.5t-48.5 -75.5t-91 -53t-141 -20h-105v-298h-156v778h300z" />
<glyph unicode="Q" horiz-adv-x="719" d="M360 667q-50 0 -81.5 -29.5t-49 -72t-24 -91t-6.5 -85.5q0 -38 6.5 -86t24 -90.5t49 -72t81.5 -29.5t81.5 29.5t49 72t24 90.5t6.5 86q0 37 -6.5 85.5t-24 91t-49 72t-81.5 29.5zM589 -191h-133q-34 0 -64 3t-52.5 20t-35.5 55t-13 107q-40 7 -84 33.5t-81.5 75.5 t-62 120t-24.5 166q0 73 19 145t58.5 129t100 92t143.5 35t143.5 -35t100 -92t58.5 -129t19 -145q0 -95 -24 -166t-62 -120t-85 -75.5t-93 -33.5q0 -26 3 -41t10 -22.5t18.5 -9t28.5 -1.5h112v-111z" />
<glyph unicode="R" horiz-adv-x="659" d="M278 455q25 0 55.5 1t56 9t43 27.5t17.5 55.5q0 40 -17.5 60.5t-44.5 28.5t-59 8.5t-61 0.5h-58v-191h68zM361 778q67 0 114.5 -21.5t77.5 -55t43.5 -73.5t13.5 -77q0 -32 -9.5 -62t-27 -56t-41.5 -46t-54 -32l155 -355h-164l-140 323h-119v-323h-156v778h307z" />
<glyph unicode="S" horiz-adv-x="617" d="M417 549q-6 20 -14.5 39.5t-21.5 35t-30.5 25t-41.5 9.5q-19 0 -36.5 -6.5t-30.5 -18.5t-20.5 -28.5t-7.5 -36.5q0 -38 27 -58.5t68 -34t88 -27.5t88 -39.5t68 -68.5t27 -115q0 -36 -14.5 -77.5t-46 -77t-81.5 -59t-122 -23.5q-111 0 -186 55t-93 169l156 23 q5 -25 14.5 -46t24 -36.5t35 -24t48.5 -8.5q46 0 79 24.5t33 74.5q0 39 -27 60.5t-68 36t-88 28t-88 37.5t-68 63.5t-27 105.5q0 52 20.5 96.5t55.5 76t80.5 49.5t96.5 18q49 0 91.5 -15.5t75 -43.5t52.5 -68t25 -89z" />
<glyph unicode="T" horiz-adv-x="575" d="M568 646h-202v-646h-156v646h-202v132h560v-132z" />
<glyph unicode="U" horiz-adv-x="647" d="M598 778v-538q0 -60 -20 -107t-56 -79t-86.5 -49t-111.5 -17q-62 0 -112.5 17t-86.5 49t-55.5 79t-19.5 107v538h156v-488q0 -49 7.5 -81.5t22 -52t36.5 -28t52 -8.5t52 8.5t36.5 28t22 52t7.5 81.5v488h156z" />
<glyph unicode="V" horiz-adv-x="600" d="M371 0h-142l-237 778h161l146 -578h2l146 578h161z" />
<glyph unicode="W" horiz-adv-x="856" d="M687 0h-160l-104 538h-2l-105 -538h-160l-164 778h154l93 -548h2l97 548h172l97 -548h2l101 548h154z" />
<glyph unicode="X" horiz-adv-x="645" d="M408 396l237 -396h-182l-141 254l-149 -254h-173l238 396l-217 382h182l125 -250l135 250h173z" />
<glyph unicode="Y" horiz-adv-x="653" d="M403 314v-314h-156v314l-255 464h166l168 -342l174 342h161z" />
<glyph unicode="Z" horiz-adv-x="569" d="M538 652l-328 -520h328v-132h-507v122l328 524h-317v132h496v-126z" />
<glyph unicode="[" horiz-adv-x="329" d="M329 -84v-107h-251v969h251v-107h-136v-755h136z" />
<glyph unicode="\" horiz-adv-x="500" d="M92 778l426 -778h-111l-426 778h111z" />
<glyph unicode="]" horiz-adv-x="329" d="M136 671h-136v107h251v-969h-251v107h136v755z" />
<glyph unicode="^" horiz-adv-x="584" d="M229 778h124l170 -425h-108l-123 306l-122 -306h-108z" />
<glyph unicode="_" horiz-adv-x="500" d="M500 -125h-500v50h500v-50z" />
<glyph unicode="`" horiz-adv-x="350" d="M245 638h-92l-103 140h136z" />
<glyph unicode="a" horiz-adv-x="573" d="M366 256q-23 -4 -54 -8.5t-59.5 -14.5t-48.5 -27.5t-20 -48.5q0 -25 12.5 -42.5t38.5 -17.5q46 0 78 22.5t53 50.5v86zM374 51q-21 -15 -38.5 -26.5t-35.5 -19.5t-38 -12.5t-47 -4.5q-36 0 -68 12t-56 33.5t-38 52t-14 68.5q0 39 16 68.5t42.5 51t60.5 36t70.5 24t72 15 t65.5 8.5q8 59 -10.5 82.5t-60.5 23.5q-35 0 -59 -16.5t-30 -53.5l-142 22q12 45 33 75t50.5 48t66 26t80.5 8q113 0 166.5 -49t53.5 -128v-278q0 -30 3 -59.5t17 -57.5h-144z" />
<glyph unicode="b" horiz-adv-x="584" d="M202 163q17 -26 40 -46t56 -20t53.5 18t31 45t14 58t3.5 56q0 23 -4 52t-15 54.5t-30 42.5t-50 17q-32 0 -55.5 -19t-43.5 -42v-216zM54 778h148v-273q31 28 62 47.5t76 19.5q30 0 66 -14.5t67 -47t51.5 -85.5t20.5 -131q0 -89 -18 -147.5t-48 -94t-69.5 -50t-81.5 -14.5 q-23 0 -42 3.5t-35.5 11t-32 18.5t-32.5 26l-13 -47h-119v778z" />
<glyph unicode="c" horiz-adv-x="558" d="M519 181q-18 -88 -79 -140.5t-155 -52.5q-61 0 -107 25t-77 65.5t-46.5 93t-15.5 108.5t15.5 108.5t46 93.5t76.5 65.5t108 24.5q94 0 155 -52.5t79 -140.5l-134 -23q-4 20 -9.5 39t-16.5 34t-28.5 24.5t-45.5 9.5q-30 0 -48.5 -19t-28.5 -46.5t-13.5 -59.5t-3.5 -58 t3.5 -58t13.5 -60t28.5 -46.5t48.5 -18.5q28 0 45.5 9.5t28.5 24.5t16.5 34.5t9.5 39.5z" />
<glyph unicode="d" horiz-adv-x="584" d="M382 394q-20 23 -43.5 42t-55.5 19q-31 0 -50 -17t-30 -42.5t-15 -54.5t-4 -52q0 -25 3.5 -55.5t14 -57t31 -44.5t53.5 -18t56 19t40 45v216zM398 47q-17 -15 -32.5 -26t-32 -18.5t-35.5 -11t-42 -3.5q-42 0 -81.5 14.5t-69.5 50t-48 94t-18 147.5q0 78 20.5 131 t51.5 85.5t67 47t66 14.5q22 0 40.5 -5.5t35 -14.5t31.5 -21t31 -26v273h148v-778h-119z" />
<glyph unicode="e" horiz-adv-x="569" d="M188 245q-2 -26 4.5 -52t21 -47.5t36 -35t50.5 -13.5q40 0 62.5 27.5t30.5 62.5l137 -25q-12 -42 -37 -74t-58 -54.5t-71.5 -34t-78.5 -11.5q-61 0 -107 25t-77 65.5t-46.5 93t-15.5 108.5t15.5 108.5t46 93.5t76.5 65.5t108 24.5q53 0 98.5 -14.5t78.5 -51.5t51 -100.5 t17 -160.5h-342zM385 338q0 24 -5 46.5t-16.5 40t-29.5 28t-45 10.5q-25 0 -43 -11t-29.5 -29t-17 -40.5t-6.5 -44.5h192z" />
<glyph unicode="f" horiz-adv-x="331" d="M331 437h-109v-437h-148v437h-74v123h74v59q0 27 9 55t28.5 51t51 38t75.5 15h93v-132h-27q-30 0 -46.5 0.5t-24.5 -4.5t-9.5 -19t-1.5 -43v-20h109v-123z" />
<glyph unicode="g" horiz-adv-x="599" d="M230 184q-13 0 -27.5 -7.5t-14.5 -27.5q0 -18 28.5 -22t72 -4.5t93.5 -1.5t93.5 -13t72 -40.5t28.5 -83.5q0 -31 -12 -61.5t-43.5 -55t-85.5 -39.5t-137 -15q-72 0 -121.5 12t-80 31.5t-44 45t-13.5 52.5q0 32 17.5 51t43.5 34q-18 14 -31 30.5t-13 40.5q0 41 20.5 66 t52.5 46q-31 30 -50.5 68t-19.5 86q0 46 18.5 82.5t49.5 62t72 38.5t86 13q37 0 71.5 -10t66.5 -29q23 21 45.5 33.5t55.5 12.5q11 0 21.5 -1t21.5 -3v-104q-11 5 -23 8.5t-24 3.5t-20.5 -3.5t-19.5 -8.5q12 -23 20.5 -47t9.5 -48q0 -47 -18 -83t-49 -61.5t-72 -38.5 t-86 -13zM183 -1q-11 -7 -17 -14t-6 -21q0 -20 17 -31t40 -16t46.5 -6.5t36.5 -1.5q9 0 34.5 1t52.5 6t47.5 14.5t20.5 26.5q0 11 -4.5 16.5t-16.5 8t-33 3.5t-54 3zM204 371q0 -38 19 -65.5t62 -27.5q23 0 38.5 9t24.5 23.5t13 33t4 38.5q0 38 -19 66t-61 28 q-23 0 -38.5 -9t-25 -23.5t-13.5 -33.5t-4 -39z" />
<glyph unicode="h" horiz-adv-x="566" d="M200 502q35 29 77.5 49.5t89.5 20.5q23 0 49 -8t47.5 -28t36 -53.5t14.5 -85.5v-397h-148v337q0 17 -0.5 37t-6 37.5t-18 29.5t-36.5 12q-32 0 -58 -19t-47 -42v-392h-148v778h148v-276z" />
<glyph unicode="i" horiz-adv-x="257" d="M203 642h-148v136h148v-136zM203 0h-148v560h148v-560z" />
<glyph unicode="j" horiz-adv-x="257" d="M203 642h-148v136h148v-136zM203 4q0 -56 -12 -93.5t-34.5 -60t-56.5 -32t-77 -9.5h-71v119h49q9 0 18 0.5t17 7.5t13.5 23.5t5.5 48.5v552h148v-556z" />
<glyph unicode="k" horiz-adv-x="556" d="M202 350l156 210h170l-173 -210l190 -350h-166l-123 230l-54 -66v-164h-148v778h148v-428z" />
<glyph unicode="l" horiz-adv-x="257" d="M203 0h-148v778h148v-778z" />
<glyph unicode="m" horiz-adv-x="893" d="M201 502q35 29 77.5 49.5t89.5 20.5q102 0 143 -77q38 32 79.5 54.5t93.5 22.5q33 0 61.5 -10.5t49.5 -31.5t33.5 -52.5t12.5 -72.5v-405h-148v353q0 16 -0.5 34t-6 32.5t-17.5 24t-35 9.5q-35 0 -64 -19t-49 -47v-387h-148v353q0 16 -0.5 34t-6 32.5t-17.5 24t-35 9.5 q-35 0 -64 -19t-49 -47v-387h-148v560h148v-58z" />
<glyph unicode="n" horiz-adv-x="566" d="M200 502q35 29 77.5 49.5t89.5 20.5q23 0 49 -8t47.5 -28t36 -53.5t14.5 -85.5v-397h-148v337q0 17 -0.5 37t-6 37.5t-18 29.5t-36.5 12q-32 0 -58 -19t-47 -42v-392h-148v560h148v-58z" />
<glyph unicode="o" horiz-adv-x="570" d="M285 97q30 0 48.5 18.5t28.5 46.5t13.5 60t3.5 58t-3.5 58t-13.5 59.5t-28.5 46.5t-48.5 19t-48.5 -19t-28.5 -46.5t-13.5 -59.5t-3.5 -58t3.5 -58t13.5 -60t28.5 -46.5t48.5 -18.5zM285 -12q-61 0 -107 25t-77 65.5t-46.5 93t-15.5 108.5t15.5 108.5t46 93.5t76.5 65.5 t108 24.5q61 0 107.5 -24.5t77 -65.5t46 -93.5t15.5 -108.5t-15.5 -108.5t-46.5 -93t-77 -65.5t-107 -25z" />
<glyph unicode="p" horiz-adv-x="584" d="M202 163q17 -26 40 -46t56 -20t53.5 18t31 45t14 58t3.5 56q0 23 -4 52t-15 54.5t-30 42.5t-50 17q-32 0 -55.5 -19t-43.5 -42v-216zM202 505q31 28 62 47.5t76 19.5q30 0 66 -14.5t67 -47t51.5 -85.5t20.5 -131q0 -89 -18 -147.5t-48 -94t-69.5 -50t-81.5 -14.5 q-35 0 -65 14.5t-61 37.5v-231h-148v751h148v-55z" />
<glyph unicode="q" horiz-adv-x="584" d="M382 401q-32 42 -86 42q-35 0 -56.5 -16t-34 -40.5t-17 -54t-4.5 -56.5t5 -57t17.5 -54.5t34.5 -40.5t55 -16q26 0 46.5 11t39.5 27v255zM530 -191h-148v227q-33 -22 -61.5 -35t-64.5 -13q-42 0 -81.5 14.5t-69.5 50t-48 94t-18 147.5q0 78 20.5 131t51.5 85.5t67 47 t66 14.5q28 0 49 -3.5t39 -11t33.5 -18.5t32.5 -26l13 47h119v-751z" />
<glyph unicode="r" horiz-adv-x="417" d="M202 462q43 51 81.5 80.5t89.5 29.5h28v-148q-11 2 -21.5 4t-21.5 2q-14 0 -40.5 -8t-52 -28.5t-44.5 -56t-19 -91.5v-246h-148v560h148v-98z" />
<glyph unicode="s" horiz-adv-x="487" d="M309 396q-5 29 -18 48t-46 19q-26 0 -43 -17.5t-17 -44.5q0 -24 20 -36t50 -21t65.5 -18.5t65.5 -27.5t50 -49t20 -84q0 -45 -17.5 -78t-46.5 -55t-67.5 -33t-81.5 -11q-87 0 -139.5 42t-63.5 130l139 15q2 -30 18.5 -54t50.5 -24q28 0 50 14t22 46q0 24 -20 36t-50 20 t-65.5 17t-65.5 27t-50 49.5t-20 86.5q0 42 17 75.5t45.5 56.5t65.5 35t78 12q37 0 69.5 -11t58 -32t43 -50.5t23.5 -65.5z" />
<glyph unicode="t" horiz-adv-x="332" d="M217 560h115v-123h-115v-285q0 -10 2 -20t8 -17.5t17 -12.5t29 -5q19 0 32 6.5t27 14.5v-113q-23 -7 -47 -12t-48 -5q-35 0 -65.5 10t-53 31t-36 54t-13.5 79v275h-69v123h69v140h148v-140z" />
<glyph unicode="u" horiz-adv-x="566" d="M366 58q-35 -29 -77.5 -49.5t-89.5 -20.5q-23 0 -49 8t-47.5 28t-36 53.5t-14.5 85.5v397h148v-337q0 -17 0.5 -37t6 -37.5t18 -29.5t36.5 -12q32 0 58 19t47 42v392h148v-560h-148v58z" />
<glyph unicode="v" horiz-adv-x="499" d="M330 0h-156l-174 560h155l98 -401h2l96 401h148z" />
<glyph unicode="w" horiz-adv-x="692" d="M549 0h-139l-66 375h-2l-68 -375h-139l-135 560h135l68 -371h2l71 371h149l62 -371h2l76 371h127z" />
<glyph unicode="x" horiz-adv-x="542" d="M352 293l186 -293h-167l-104 180l-102 -180h-161l185 282l-174 278h167l92 -159l95 159h161z" />
<glyph unicode="y" horiz-adv-x="528" d="M312 -45q-14 -38 -28.5 -68t-35.5 -50.5t-51.5 -31.5t-74.5 -11q-46 0 -95 11v127q17 -6 31.5 -10t32.5 -4q25 0 42.5 7t30 19.5t21 30t15.5 39.5l-200 546h160l113 -369l103 369h152z" />
<glyph unicode="z" horiz-adv-x="524" d="M485 455l-261 -338h261v-117h-446v100l257 343h-240v117h429v-105z" />
<glyph unicode="{" horiz-adv-x="389" d="M36 342h21t27.5 4t23.5 14.5t10 31.5v244q0 37 12.5 64t30.5 44.5t37 25.5t33 8h85v-97h-37q-17 0 -26.5 -5.5t-14 -14t-5 -19.5t-0.5 -22v-224q-1 -30 -11.5 -49.5t-25.5 -30.5t-31 -15.5t-28 -5.5v-3q12 -1 28 -5.5t31 -16t25.5 -30.5t11.5 -49v-224q0 -11 0.5 -22 t5 -19.5t14 -14t26.5 -5.5h37v-97h-85q-14 0 -33 8t-37 25.5t-30.5 44t-12.5 64.5v244q0 21 -10 31.5t-23.5 14.5t-27.5 4h-21v97z" />
<glyph unicode="|" horiz-adv-x="280" d="M198 -250h-115v1000h115v-1000z" />
<glyph unicode="}" horiz-adv-x="389" d="M353 245h-21.5t-27 -4t-23.5 -14.5t-10 -31.5v-244q0 -38 -12.5 -64.5t-30.5 -44t-37.5 -25.5t-32.5 -8h-85v97h37q17 0 26.5 5.5t14 14t5 19.5t0.5 22v224q1 30 11.5 49t25.5 30.5t31 16t28 5.5v3q-12 1 -28 5.5t-31 15.5t-25.5 30.5t-11.5 49.5v224q0 11 -0.5 22 t-5 19.5t-14 14t-26.5 5.5h-37v97h85q13 0 32.5 -8t37.5 -25.5t30.5 -44.5t12.5 -64v-244q0 -21 10 -31.5t23.5 -14.5t27 -4h21.5v-97z" />
<glyph unicode="~" horiz-adv-x="584" d="M498 323q1 -26 -7 -53.5t-24.5 -49.5t-41.5 -36t-57 -14q-25 0 -46.5 6t-41 13.5t-37 13.5t-33.5 6q-18 0 -27 -12t-11 -27h-85q-2 26 6 53t25 49.5t41.5 36.5t54.5 14q25 0 47 -5.5t41.5 -12.5t37.5 -12.5t36 -5.5t27 10.5t12 25.5h83z" />
<glyph unicode="&#xa1;" horiz-adv-x="247" d="M49 560h148v-148h-148v148zM208 -191h-169l23 514h123z" />
<glyph unicode="&#xa2;" d="M552 300q-16 -77 -65 -128.5t-128 -62.5v-89h-96v93q-50 13 -86.5 39.5t-60 63.5t-35 81.5t-11.5 94.5t10.5 96.5t34 85t60 67t88.5 42.5v95h96v-90q78 -10 128 -62t65 -128l-134 -23q-4 20 -9.5 39t-15.5 34t-26 24.5t-41 9.5q-34 0 -54 -19t-30.5 -47t-14 -60t-3.5 -57 q0 -26 3.5 -57.5t14 -59.5t30.5 -47t54 -19q25 0 41 9.5t26 24.5t15.5 34.5t9.5 39.5z" />
<glyph unicode="&#xa3;" d="M62 357v111h90q-6 27 -10 54.5t-4 55.5q0 50 18.5 89.5t50 66.5t73.5 41.5t90 14.5q79 0 135 -39.5t80 -115.5l-129 -43q-8 29 -32 52t-56 23q-20 0 -33.5 -7.5t-22.5 -20t-13 -29t-4 -33.5q0 -28 6 -55t14 -54h158v-111h-121q8 -29 13 -58.5t5 -59.5q0 -20 -2.5 -39.5 t-7.5 -39.5q31 -19 50 -29.5t38 -10.5q27 0 41.5 15.5t35.5 47.5l113 -54q-15 -26 -30.5 -51.5t-35 -45.5t-45 -32t-59.5 -12q-45 0 -83 21.5t-72 48.5q-34 -34 -72 -52t-86 -18q-31 0 -60 9t-51 26.5t-35 43t-13 59.5q0 28 10 52t28 41t42 27t52 10t50.5 -6t46.5 -17 q-5 32 -12 63.5t-21 60.5h-130zM217 129q-17 11 -32.5 20t-36.5 9q-17 0 -30 -8t-13 -28q0 -18 13 -29t30 -11q24 0 39 15t30 32z" />
<glyph unicode="&#xa4;" d="M311 458q-25 0 -45.5 -10t-34.5 -25.5t-21.5 -34.5t-5.5 -37q-2 -18 5.5 -37t21.5 -34.5t34.5 -25.5t45.5 -10t45 10t34.5 25.5t21.5 34.5t6 37q1 18 -6 37t-21.5 34.5t-34.5 25.5t-45 10zM514 76l-87 84q-20 -13 -49 -21.5t-67 -8.5t-68.5 9t-57.5 25l-77 -88l-74 75 l86 87q-19 29 -27.5 53.5t-8.5 59.5t8.5 59.5t27.5 53.5l-86 87l74 75l77 -88q27 16 57.5 25t68.5 9t67 -8.5t49 -21.5l87 84l74 -75l-86 -87q19 -29 27.5 -53.5t8.5 -59.5t-8.5 -59.5t-27.5 -53.5l86 -87z" />
<glyph unicode="&#xa5;" d="M488 560h109v-111h-177l-31 -57v-34h208v-111h-208v-247h-156v247h-208v111h208v34l-36 57h-172v111h106l-131 218h166l145 -264l150 264h161z" />
<glyph unicode="&#xa6;" horiz-adv-x="280" d="M198 -175h-115v350h115v-350zM198 325h-115v350h115v-350z" />
<glyph unicode="&#xa7;" d="M413 582q-8 17 -17 32.5t-21 27t-28 18.5t-37 7q-14 0 -28 -3.5t-25 -11t-18.5 -19t-7.5 -27.5q0 -17 7.5 -28.5t19 -19.5t25.5 -13.5t28 -10.5l91 -36q34 -13 65.5 -31t55.5 -42t38.5 -55t14.5 -71q0 -52 -28 -94t-66 -75q24 -26 38.5 -55t14.5 -65q0 -45 -18.5 -82.5 t-49 -65t-71 -42.5t-84.5 -15q-41 0 -77.5 11.5t-67 32.5t-53.5 51.5t-36 68.5l131 44q8 -17 17 -32.5t21 -27t28 -18.5t37 -7q13 0 27.5 3.5t25.5 11t18.5 19t7.5 27.5q0 17 -7.5 28.5t-19 19.5t-25.5 13.5t-28 10.5l-91 36q-34 13 -65.5 30.5t-55.5 41.5t-38.5 55.5 t-14.5 71.5q0 52 28 94t66 75q-24 26 -38.5 55t-14.5 65q0 45 18.5 82.5t49 65t71 42.5t84.5 15q40 0 77 -11.5t67.5 -32.5t53.5 -51.5t36 -68.5zM397 190q19 15 34 34.5t15 45.5q0 18 -6 31t-16.5 22t-23.5 16t-28 13l-147 64q-19 -15 -34 -34.5t-15 -45.5q0 -18 6 -31 t16.5 -22t23.5 -16t28 -13z" />
<glyph unicode="&#xa8;" horiz-adv-x="533" d="M455 630h-148v148h148v-148zM226 630h-148v148h148v-148z" />
<glyph unicode="&#xa9;" horiz-adv-x="860" d="M633 303q-11 -72 -62.5 -113t-140.5 -41q-42 0 -80 14t-66.5 43t-45 73.5t-16.5 105.5q0 54 13 99t39 77.5t65 50.5t91 18q88 0 139.5 -39.5t63.5 -114.5l-108 -12q-3 18 -9.5 34.5t-18 29.5t-28 20.5t-39.5 7.5q-24 0 -40 -17.5t-26.5 -43.5t-15 -55t-4.5 -51 q0 -23 4.5 -51.5t15 -54t26.5 -43t40 -17.5q46 0 67 27.5t28 63.5zM430 76q67 0 124 22t99 62.5t66 98.5t24 130t-24 130t-66 98.5t-99 62.5t-124 22q-63 0 -120 -22t-100 -62.5t-68 -98.5t-25 -130t25 -130t68 -98.5t100 -62.5t120 -22zM430 -12q-88 0 -161.5 31.5t-127 86 t-83 127.5t-29.5 156t29.5 156t83 127.5t127 86t161.5 31.5q87 0 161 -31.5t127 -86t83 -127.5t30 -156t-30 -156t-83 -127.5t-127 -86t-161 -31.5z" />
<glyph unicode="&#xaa;" horiz-adv-x="322" d="M207 682q0 17 -7 27.5t-33 10.5q-22 0 -35.5 -8.5t-17.5 -30.5l-92 13q15 54 51 75t90 21q34 0 60.5 -6t43.5 -21t26 -41t9 -66v-135q0 -20 2 -36t11 -35h-92l-10 28q-23 -16 -42.5 -25.5t-48.5 -9.5q-21 0 -41.5 6t-36.5 18t-26 30t-10 42q0 37 20.5 60.5t51 37.5 t65 20.5t62.5 11.5v13zM207 593q-11 -2 -28 -4.5t-33 -8t-28 -15t-12 -23.5t9 -21.5t23 -7.5q20 0 38.5 12t30.5 28v40z" />
<glyph unicode="&#xab;" horiz-adv-x="489" d="M39 296l92 223h109l-84 -223l84 -223h-109zM249 296l92 223h109l-84 -223l84 -223h-109z" />
<glyph unicode="&#xac;" horiz-adv-x="584" d="M419 313h-369v109h484v-291h-115v182z" />
<glyph unicode="&#xad;" horiz-adv-x="341" d="M302 358v-124h-263v124h263z" />
<glyph unicode="&#xae;" horiz-adv-x="860" d="M407 410q16 0 36 0.5t37 6t28.5 18t11.5 36.5q0 26 -11.5 39t-29 18.5t-38.5 6t-40 0.5h-36v-125h42zM460 623q45 0 78 -12t54.5 -32t32 -47.5t10.5 -58.5q0 -49 -26 -83.5t-72 -48.5l95 -185h-118l-79 166h-70v-166h-105v467h200zM430 76q67 0 124 22t99 62.5t66 98.5 t24 130t-24 130t-66 98.5t-99 62.5t-124 22q-63 0 -120 -22t-100 -62.5t-68 -98.5t-25 -130t25 -130t68 -98.5t100 -62.5t120 -22zM430 -12q-88 0 -161.5 31.5t-127 86t-83 127.5t-29.5 156t29.5 156t83 127.5t127 86t161.5 31.5q87 0 161 -31.5t127 -86t83 -127.5t30 -156 t-30 -156t-83 -127.5t-127 -86t-161 -31.5z" />
<glyph unicode="&#xaf;" horiz-adv-x="576" d="M498 673h-420v105h420v-105z" />
<glyph unicode="&#xb0;" horiz-adv-x="400" d="M270 630q0 29 -20.5 49.5t-49.5 20.5t-50 -20.5t-20 -49.5q0 -29 20.5 -49.5t49.5 -20.5t49.5 20.5t20.5 49.5zM360 630q0 -35 -12 -64.5t-33.5 -50.5t-51 -33t-63.5 -12q-35 0 -64.5 12t-50.5 33t-33 50.5t-12 64.5q0 34 11.5 63.5t33 51t51 33.5t64.5 12q34 0 63.5 -12 t51 -33.5t33.5 -51t12 -63.5z" />
<glyph unicode="&#xb1;" horiz-adv-x="584" d="M50 109h484v-109h-484v109zM350 493v-116h184v-109h-184v-116h-115v116h-185v109h185v116h115z" />
<glyph unicode="&#xb2;" horiz-adv-x="373" d="M352 316h-333v112q36 45 75 77t71.5 56t53 44t20.5 41q0 27 -14 40.5t-34 13.5q-39 0 -55 -16t-21 -48l-106 20q1 32 14.5 57t37.5 42t56 26t71 9q43 0 74 -11t51.5 -29.5t30.5 -43.5t10 -52q0 -35 -9.5 -59.5t-26 -43.5t-38.5 -34.5t-46.5 -31.5t-50.5 -35t-51 -44h220 v-90z" />
<glyph unicode="&#xb3;" horiz-adv-x="373" d="M127 605q14 0 34 0.5t38.5 5.5t31.5 15t13 29q0 14 -15 29.5t-42 15.5q-29 0 -44.5 -15t-21.5 -27l-97 33q23 47 65.5 73t99.5 26q31 0 61.5 -6t54.5 -21t39 -39.5t15 -60.5q0 -38 -22.5 -60.5t-61.5 -38.5q42 -14 67.5 -42t25.5 -67q0 -41 -15.5 -69t-41 -45 t-58.5 -24.5t-69 -7.5q-32 0 -61.5 8.5t-53.5 25t-41 39.5t-23 53l104 18q3 -10 8.5 -19.5t14.5 -17t22.5 -12.5t32.5 -5q29 0 47.5 17t18.5 33q0 21 -13.5 34t-33 20.5t-41 10t-38.5 1.5v90z" />
<glyph unicode="&#xb4;" horiz-adv-x="350" d="M164 778h136l-103 -140h-92z" />
<glyph unicode="&#xb5;" horiz-adv-x="566" d="M366 58q-36 -29 -80.5 -49.5t-85.5 -20.5v-179h-148v751h148v-337q0 -17 0.5 -37t6 -37.5t18 -29.5t36.5 -12q32 0 58 19t47 42v392h148v-560h-148v58z" />
<glyph unicode="&#xb6;" horiz-adv-x="670" d="M279 688q-121 0 -121 -118q0 -54 29.5 -88t80.5 -34h54v240h-43zM622 -189h-105v877h-90v-877h-105v547h-71q-59 0 -101 20t-68.5 51t-39 68t-12.5 70q0 46 16 85t44 67t67 43.5t84 15.5h381v-967z" />
<glyph unicode="&#xb7;" horiz-adv-x="311" d="M230 173h-148v148h148v-148z" />
<glyph unicode="&#xb8;" horiz-adv-x="303" d="M157 -232h-79l25 167h122z" />
<glyph unicode="&#xb9;" horiz-adv-x="373" d="M245 406h71v-90h-258v90h72v275h-72v66l107 36h80v-377z" />
<glyph unicode="&#xba;" horiz-adv-x="345" d="M118 617q0 -13 2 -31t7.5 -34t16.5 -27.5t29 -11.5t28.5 11.5t16.5 27.5t7.5 34t1.5 31t-1.5 31t-7.5 34t-16.5 27t-28.5 11t-29 -11t-17 -27t-7.5 -34t-1.5 -31zM325 617q0 -35 -10 -66.5t-29.5 -55.5t-48 -38t-65.5 -14t-65 14t-47.5 38t-29.5 55.5t-10 66.5 q0 34 10 65.5t29 55.5t47.5 38t65.5 14t65.5 -14t48 -38t29.5 -55.5t10 -65.5z" />
<glyph unicode="&#xbb;" horiz-adv-x="489" d="M358 73h-109l84 223l-84 223h109l92 -223zM148 73h-109l84 223l-84 223h109l92 -223z" />
<glyph unicode="&#xbc;" horiz-adv-x="933" d="M238 406h71v-90h-258v90h72v275h-72v66l107 36h80v-377zM716 347h-3l-95 -167h98v167zM707 778l-394 -778h-94l394 778h94zM716 0v90h-205v81l182 296h138v-287h58v-90h-58v-90h-115z" />
<glyph unicode="&#xbd;" horiz-adv-x="933" d="M896 0h-333v112q36 45 75 77t71.5 56t53 44t20.5 41q0 27 -14 40.5t-34 13.5q-39 0 -55 -16t-21 -48l-106 20q1 32 14.5 57t37.5 42t56 26t71 9q43 0 74 -11t51.5 -29.5t30.5 -43.5t10 -52q0 -35 -9.5 -59.5t-26 -43.5t-38.5 -34.5t-46.5 -31.5t-50.5 -35t-51 -44h220 v-90zM222 406h71v-90h-258v90h72v275h-72v66l107 36h80v-377zM685 778l-394 -778h-94l394 778h94z" />
<glyph unicode="&#xbe;" horiz-adv-x="933" d="M137 605q14 0 34 0.5t38.5 5.5t31.5 15t13 29q0 14 -15 29.5t-42 15.5q-29 0 -44.5 -15t-21.5 -27l-97 33q23 47 65.5 73t99.5 26q31 0 61.5 -6t54.5 -21t39 -39.5t15 -60.5q0 -38 -22.5 -60.5t-61.5 -38.5q42 -14 67.5 -42t25.5 -67q0 -41 -15.5 -69t-41 -45 t-58.5 -24.5t-69 -7.5q-32 0 -61.5 8.5t-53.5 25t-41 39.5t-23 53l104 18q3 -10 8.5 -19.5t14.5 -17t22.5 -12.5t32.5 -5q29 0 47.5 17t18.5 33q0 21 -13.5 34t-33 20.5t-41 10t-38.5 1.5v90zM730 347h-3l-95 -167h98v167zM721 778l-394 -778h-94l394 778h94zM730 0v90h-205 v81l182 296h138v-287h58v-90h-58v-90h-115z" />
<glyph unicode="&#xbf;" horiz-adv-x="447" d="M192 560h148v-148h-148v148zM424 -76q-32 -60 -83 -95t-120 -35q-41 0 -77 10.5t-63 32.5t-42.5 54.5t-15.5 77.5q0 46 14 78.5t34 57t44 45t43 44.5t31 54.5t9 74.5h134v-33q0 -37 -13 -67.5t-32.5 -56.5t-42 -49.5t-42 -46t-32.5 -45.5t-13 -49q0 -23 16 -41t40 -18 q35 0 60 23t38 54z" />
<glyph unicode="&#xc0;" horiz-adv-x="634" d="M387 856h-92l-103 140h136zM319 644h-4l-82 -326h168zM642 0h-159l-51 195h-230l-51 -195h-159l218 778h210z" />
<glyph unicode="&#xc1;" horiz-adv-x="634" d="M306 996h136l-103 -140h-92zM319 644h-4l-82 -326h168zM642 0h-159l-51 195h-230l-51 -195h-159l218 778h210z" />
<glyph unicode="&#xc2;" horiz-adv-x="634" d="M493 856h-135l-56 63l-52 -63h-132l117 140h136zM319 644h-4l-82 -326h168zM642 0h-159l-51 195h-230l-51 -195h-159l218 778h210z" />
<glyph unicode="&#xc3;" horiz-adv-x="634" d="M488 996q1 -24 -5.5 -48.5t-20 -45t-34.5 -33t-48 -12.5q-21 0 -39 5.5t-34 12t-30.5 12t-28.5 5.5q-15 0 -22.5 -10.5t-8.5 -24.5h-71q-2 24 5 48.5t21 44.5t34 33t46 13q21 0 39 -5t34 -11.5t31.5 -11.5t30.5 -5t22.5 9.5t9.5 23.5h69zM319 644h-4l-82 -326h168zM642 0 h-159l-51 195h-230l-51 -195h-159l218 778h210z" />
<glyph unicode="&#xc4;" horiz-adv-x="634" d="M506 848h-148v148h148v-148zM277 848h-148v148h148v-148zM319 644h-4l-82 -326h168zM642 0h-159l-51 195h-230l-51 -195h-159l218 778h210z" />
<glyph unicode="&#xc5;" horiz-adv-x="634" d="M271 923q0 -20 13.5 -33.5t32.5 -13.5q20 0 33.5 13.5t13.5 33.5t-13.5 33.5t-33.5 13.5q-19 0 -32.5 -13.5t-13.5 -33.5zM201 923q0 24 9 45.5t25 37t37 25t45 9.5t45.5 -9.5t37.5 -25t25 -37t9 -45.5t-9 -45.5t-25 -37.5t-37.5 -25t-45.5 -9t-45 9t-37 25t-25 37.5 t-9 45.5zM319 644h-4l-82 -326h168zM642 0h-159l-51 195h-230l-51 -195h-159l218 778h210z" />
<glyph unicode="&#xc6;" horiz-adv-x="895" d="M319 644h-4l-82 -326h168zM432 195h-230l-51 -195h-159l218 778h613v-132h-371l52 -186h269v-132h-230l56 -196h250v-132h-366z" />
<glyph unicode="&#xc7;" horiz-adv-x="692" d="M352 -232h-79l25 167h122zM653 245q-18 -121 -94.5 -189t-198.5 -68q-83 0 -143.5 35t-100 92t-58.5 128.5t-19 145.5q0 73 19 145t58.5 129t100 92t143.5 35q121 0 197 -66t96 -191l-148 -20q-6 30 -16 58t-27 49.5t-42 34t-60 12.5q-50 0 -81.5 -29.5t-49 -72t-24 -91 t-6.5 -85.5q0 -38 6.5 -86t24 -90.5t49 -72t81.5 -29.5q35 0 60 12.5t42 34t27 49t16 57.5z" />
<glyph unicode="&#xc8;" horiz-adv-x="600" d="M370 856h-92l-103 140h136zM538 646h-328v-186h272v-132h-272v-196h347v-132h-503v778h484v-132z" />
<glyph unicode="&#xc9;" horiz-adv-x="600" d="M289 996h136l-103 -140h-92zM538 646h-328v-186h272v-132h-272v-196h347v-132h-503v778h484v-132z" />
<glyph unicode="&#xca;" horiz-adv-x="600" d="M488 856h-135l-56 63l-52 -63h-132l117 140h136zM538 646h-328v-186h272v-132h-272v-196h347v-132h-503v778h484v-132z" />
<glyph unicode="&#xcb;" horiz-adv-x="600" d="M489 848h-148v148h148v-148zM260 848h-148v148h148v-148zM538 646h-328v-186h272v-132h-272v-196h347v-132h-503v778h484v-132z" />
<glyph unicode="&#xcc;" horiz-adv-x="264" d="M202 856h-92l-103 140h136zM54 0v778h156v-778h-156z" />
<glyph unicode="&#xcd;" horiz-adv-x="264" d="M121 996h136l-103 -140h-92zM54 0v778h156v-778h-156z" />
<glyph unicode="&#xce;" horiz-adv-x="264" d="M320 856h-135l-56 63l-52 -63h-132l117 140h136zM54 0v778h156v-778h-156z" />
<glyph unicode="&#xcf;" horiz-adv-x="264" d="M321 848h-148v148h148v-148zM92 848h-148v148h148v-148zM54 0v778h156v-778h-156z" />
<glyph unicode="&#xd0;" horiz-adv-x="684" d="M286 132q46 0 83 15.5t63 48.5t39.5 85t13.5 126q0 123 -53 181t-163 58h-59v-186h135v-132h-135v-196h76zM244 778q111 0 187.5 -29.5t124 -82t68.5 -123.5t21 -154q0 -82 -21.5 -153t-65 -123.5t-108.5 -82.5t-152 -30h-244v328h-74v132h74v318h190z" />
<glyph unicode="&#xd1;" horiz-adv-x="727" d="M535 996q1 -24 -5.5 -48.5t-20 -45t-34.5 -33t-48 -12.5q-21 0 -39 5.5t-34 12t-30.5 12t-28.5 5.5q-15 0 -22.5 -10.5t-8.5 -24.5h-71q-2 24 5 48.5t21 44.5t34 33t46 13q21 0 39 -5t34 -11.5t31.5 -11.5t30.5 -5t22.5 9.5t9.5 23.5h69zM282 778l233 -513h2v513h156 v-778h-167l-294 625h-2v-625h-156v778h228z" />
<glyph unicode="&#xd2;" horiz-adv-x="719" d="M430 856h-92l-103 140h136zM360 667q-50 0 -81.5 -29.5t-49 -72t-24 -91t-6.5 -85.5q0 -38 6.5 -86t24 -90.5t49 -72t81.5 -29.5t81.5 29.5t49 72t24 90.5t6.5 86q0 37 -6.5 85.5t-24 91t-49 72t-81.5 29.5zM360 790q83 0 143.5 -35t100 -92t58.5 -129t19 -145 q0 -74 -19 -145.5t-58.5 -128.5t-100 -92t-143.5 -35t-143.5 35t-100 92t-58.5 128.5t-19 145.5q0 73 19 145t58.5 129t100 92t143.5 35z" />
<glyph unicode="&#xd3;" horiz-adv-x="719" d="M349 996h136l-103 -140h-92zM360 667q-50 0 -81.5 -29.5t-49 -72t-24 -91t-6.5 -85.5q0 -38 6.5 -86t24 -90.5t49 -72t81.5 -29.5t81.5 29.5t49 72t24 90.5t6.5 86q0 37 -6.5 85.5t-24 91t-49 72t-81.5 29.5zM360 790q83 0 143.5 -35t100 -92t58.5 -129t19 -145 q0 -74 -19 -145.5t-58.5 -128.5t-100 -92t-143.5 -35t-143.5 35t-100 92t-58.5 128.5t-19 145.5q0 73 19 145t58.5 129t100 92t143.5 35z" />
<glyph unicode="&#xd4;" horiz-adv-x="719" d="M547 856h-135l-56 63l-52 -63h-132l117 140h136zM360 667q-50 0 -81.5 -29.5t-49 -72t-24 -91t-6.5 -85.5q0 -38 6.5 -86t24 -90.5t49 -72t81.5 -29.5t81.5 29.5t49 72t24 90.5t6.5 86q0 37 -6.5 85.5t-24 91t-49 72t-81.5 29.5zM360 790q83 0 143.5 -35t100 -92 t58.5 -129t19 -145q0 -74 -19 -145.5t-58.5 -128.5t-100 -92t-143.5 -35t-143.5 35t-100 92t-58.5 128.5t-19 145.5q0 73 19 145t58.5 129t100 92t143.5 35z" />
<glyph unicode="&#xd5;" horiz-adv-x="719" d="M531 996q1 -24 -5.5 -48.5t-20 -45t-34.5 -33t-48 -12.5q-21 0 -39 5.5t-34 12t-30.5 12t-28.5 5.5q-15 0 -22.5 -10.5t-8.5 -24.5h-71q-2 24 5 48.5t21 44.5t34 33t46 13q21 0 39 -5t34 -11.5t31.5 -11.5t30.5 -5t22.5 9.5t9.5 23.5h69zM360 667q-50 0 -81.5 -29.5 t-49 -72t-24 -91t-6.5 -85.5q0 -38 6.5 -86t24 -90.5t49 -72t81.5 -29.5t81.5 29.5t49 72t24 90.5t6.5 86q0 37 -6.5 85.5t-24 91t-49 72t-81.5 29.5zM360 790q83 0 143.5 -35t100 -92t58.5 -129t19 -145q0 -74 -19 -145.5t-58.5 -128.5t-100 -92t-143.5 -35t-143.5 35 t-100 92t-58.5 128.5t-19 145.5q0 73 19 145t58.5 129t100 92t143.5 35z" />
<glyph unicode="&#xd6;" horiz-adv-x="719" d="M548 848h-148v148h148v-148zM319 848h-148v148h148v-148zM360 667q-50 0 -81.5 -29.5t-49 -72t-24 -91t-6.5 -85.5q0 -38 6.5 -86t24 -90.5t49 -72t81.5 -29.5t81.5 29.5t49 72t24 90.5t6.5 86q0 37 -6.5 85.5t-24 91t-49 72t-81.5 29.5zM360 790q83 0 143.5 -35t100 -92 t58.5 -129t19 -145q0 -74 -19 -145.5t-58.5 -128.5t-100 -92t-143.5 -35t-143.5 35t-100 92t-58.5 128.5t-19 145.5q0 73 19 145t58.5 129t100 92t143.5 35z" />
<glyph unicode="&#xd7;" horiz-adv-x="584" d="M130 7l-80 78l162 162l-162 162l80 78l162 -162l162 162l80 -78l-162 -162l162 -162l-80 -78l-162 162z" />
<glyph unicode="&#xd8;" horiz-adv-x="719" d="M478 606q-35 67 -118 67q-36 0 -62 -13.5t-44 -36t-29 -52.5t-16.5 -62t-7.5 -64t-2 -60q0 -35 4 -70t15 -72zM609 790l72 -51l-66 -94q34 -55 50 -121t16 -135q0 -74 -19 -145.5t-58.5 -128.5t-100 -92t-143.5 -35q-57 0 -101.5 16t-78.5 43l-72 -90l-69 51l82 103 q-43 60 -62.5 132t-19.5 146q0 73 19 145t58.5 129t100 92t143.5 35q63 0 113 -20.5t87 -55.5zM256 149q17 -20 43 -32t61 -12q36 0 65.5 14t50.5 46.5t33 86t12 133.5q0 29 -4 57.5t-9 57.5z" />
<glyph unicode="&#xd9;" horiz-adv-x="647" d="M394 856h-92l-103 140h136zM598 778v-538q0 -60 -20 -107t-56 -79t-86.5 -49t-111.5 -17q-62 0 -112.5 17t-86.5 49t-55.5 79t-19.5 107v538h156v-488q0 -49 7.5 -81.5t22 -52t36.5 -28t52 -8.5t52 8.5t36.5 28t22 52t7.5 81.5v488h156z" />
<glyph unicode="&#xda;" horiz-adv-x="647" d="M313 996h136l-103 -140h-92zM598 778v-538q0 -60 -20 -107t-56 -79t-86.5 -49t-111.5 -17q-62 0 -112.5 17t-86.5 49t-55.5 79t-19.5 107v538h156v-488q0 -49 7.5 -81.5t22 -52t36.5 -28t52 -8.5t52 8.5t36.5 28t22 52t7.5 81.5v488h156z" />
<glyph unicode="&#xdb;" horiz-adv-x="647" d="M511 856h-135l-56 63l-52 -63h-132l117 140h136zM598 778v-538q0 -60 -20 -107t-56 -79t-86.5 -49t-111.5 -17q-62 0 -112.5 17t-86.5 49t-55.5 79t-19.5 107v538h156v-488q0 -49 7.5 -81.5t22 -52t36.5 -28t52 -8.5t52 8.5t36.5 28t22 52t7.5 81.5v488h156z" />
<glyph unicode="&#xdc;" horiz-adv-x="647" d="M512 848h-148v148h148v-148zM283 848h-148v148h148v-148zM598 778v-538q0 -60 -20 -107t-56 -79t-86.5 -49t-111.5 -17q-62 0 -112.5 17t-86.5 49t-55.5 79t-19.5 107v538h156v-488q0 -49 7.5 -81.5t22 -52t36.5 -28t52 -8.5t52 8.5t36.5 28t22 52t7.5 81.5v488h156z" />
<glyph unicode="&#xdd;" horiz-adv-x="653" d="M316 996h136l-103 -140h-92zM403 314v-314h-156v314l-255 464h166l168 -342l174 342h161z" />
<glyph unicode="&#xde;" horiz-adv-x="630" d="M242 282q32 0 68.5 -0.5t67.5 8.5t51.5 31.5t20.5 68.5t-20.5 68.5t-51.5 31.5t-67.5 8.5t-68.5 -0.5h-32v-216h32zM210 778v-148h144q68 0 116.5 -22.5t79.5 -58t45.5 -79t14.5 -85.5q0 -44 -14.5 -86.5t-48.5 -75.5t-91 -53t-141 -20h-105v-150h-156v778h156z" />
<glyph unicode="&#xdf;" horiz-adv-x="587" d="M276 106q8 -2 14 -3t14 -1q25 0 42.5 15.5t28 38t15 48t4.5 45.5q0 24 -5 50.5t-18.5 47.5t-36 33t-58.5 6v109q45 -1 69.5 21.5t24.5 68.5q0 35 -19 58.5t-57 23.5q-39 0 -58 -16.5t-26.5 -41.5t-7.5 -55v-58v-496h-148v542q0 65 19 112t51.5 77t74 44.5t86.5 14.5 q113 0 171.5 -54.5t58.5 -142.5q0 -47 -21 -83.5t-62 -59.5q31 -14 52.5 -37t35 -51.5t19.5 -60.5t6 -63q0 -49 -13 -94t-39.5 -79.5t-66.5 -55.5t-93 -21q-14 0 -28.5 4t-28.5 8v106z" />
<glyph unicode="&#xe0;" horiz-adv-x="573" d="M357 638h-92l-103 140h136zM366 256q-23 -4 -54 -8.5t-59.5 -14.5t-48.5 -27.5t-20 -48.5q0 -25 12.5 -42.5t38.5 -17.5q46 0 78 22.5t53 50.5v86zM374 51q-21 -15 -38.5 -26.5t-35.5 -19.5t-38 -12.5t-47 -4.5q-36 0 -68 12t-56 33.5t-38 52t-14 68.5q0 39 16 68.5 t42.5 51t60.5 36t70.5 24t72 15t65.5 8.5q8 59 -10.5 82.5t-60.5 23.5q-35 0 -59 -16.5t-30 -53.5l-142 22q12 45 33 75t50.5 48t66 26t80.5 8q113 0 166.5 -49t53.5 -128v-278q0 -30 3 -59.5t17 -57.5h-144z" />
<glyph unicode="&#xe1;" horiz-adv-x="573" d="M276 778h136l-103 -140h-92zM366 256q-23 -4 -54 -8.5t-59.5 -14.5t-48.5 -27.5t-20 -48.5q0 -25 12.5 -42.5t38.5 -17.5q46 0 78 22.5t53 50.5v86zM374 51q-21 -15 -38.5 -26.5t-35.5 -19.5t-38 -12.5t-47 -4.5q-36 0 -68 12t-56 33.5t-38 52t-14 68.5q0 39 16 68.5 t42.5 51t60.5 36t70.5 24t72 15t65.5 8.5q8 59 -10.5 82.5t-60.5 23.5q-35 0 -59 -16.5t-30 -53.5l-142 22q12 45 33 75t50.5 48t66 26t80.5 8q113 0 166.5 -49t53.5 -128v-278q0 -30 3 -59.5t17 -57.5h-144z" />
<glyph unicode="&#xe2;" horiz-adv-x="573" d="M474 638h-135l-56 63l-52 -63h-132l117 140h136zM366 256q-23 -4 -54 -8.5t-59.5 -14.5t-48.5 -27.5t-20 -48.5q0 -25 12.5 -42.5t38.5 -17.5q46 0 78 22.5t53 50.5v86zM374 51q-21 -15 -38.5 -26.5t-35.5 -19.5t-38 -12.5t-47 -4.5q-36 0 -68 12t-56 33.5t-38 52 t-14 68.5q0 39 16 68.5t42.5 51t60.5 36t70.5 24t72 15t65.5 8.5q8 59 -10.5 82.5t-60.5 23.5q-35 0 -59 -16.5t-30 -53.5l-142 22q12 45 33 75t50.5 48t66 26t80.5 8q113 0 166.5 -49t53.5 -128v-278q0 -30 3 -59.5t17 -57.5h-144z" />
<glyph unicode="&#xe3;" horiz-adv-x="573" d="M458 778q1 -24 -5.5 -48.5t-20 -45t-34.5 -33t-48 -12.5q-21 0 -39 5.5t-34 12t-30.5 12t-28.5 5.5q-15 0 -22.5 -10.5t-8.5 -24.5h-71q-2 24 5 48.5t21 44.5t34 33t46 13q21 0 39 -5t34 -11.5t31.5 -11.5t30.5 -5t22.5 9.5t9.5 23.5h69zM366 256q-23 -4 -54 -8.5 t-59.5 -14.5t-48.5 -27.5t-20 -48.5q0 -25 12.5 -42.5t38.5 -17.5q46 0 78 22.5t53 50.5v86zM374 51q-21 -15 -38.5 -26.5t-35.5 -19.5t-38 -12.5t-47 -4.5q-36 0 -68 12t-56 33.5t-38 52t-14 68.5q0 39 16 68.5t42.5 51t60.5 36t70.5 24t72 15t65.5 8.5q8 59 -10.5 82.5 t-60.5 23.5q-35 0 -59 -16.5t-30 -53.5l-142 22q12 45 33 75t50.5 48t66 26t80.5 8q113 0 166.5 -49t53.5 -128v-278q0 -30 3 -59.5t17 -57.5h-144z" />
<glyph unicode="&#xe4;" horiz-adv-x="573" d="M475 630h-148v148h148v-148zM246 630h-148v148h148v-148zM366 256q-23 -4 -54 -8.5t-59.5 -14.5t-48.5 -27.5t-20 -48.5q0 -25 12.5 -42.5t38.5 -17.5q46 0 78 22.5t53 50.5v86zM374 51q-21 -15 -38.5 -26.5t-35.5 -19.5t-38 -12.5t-47 -4.5q-36 0 -68 12t-56 33.5 t-38 52t-14 68.5q0 39 16 68.5t42.5 51t60.5 36t70.5 24t72 15t65.5 8.5q8 59 -10.5 82.5t-60.5 23.5q-35 0 -59 -16.5t-30 -53.5l-142 22q12 45 33 75t50.5 48t66 26t80.5 8q113 0 166.5 -49t53.5 -128v-278q0 -30 3 -59.5t17 -57.5h-144z" />
<glyph unicode="&#xe5;" horiz-adv-x="573" d="M240 705q0 -20 13.5 -33.5t32.5 -13.5q20 0 33.5 13.5t13.5 33.5t-13.5 33.5t-33.5 13.5q-19 0 -32.5 -13.5t-13.5 -33.5zM170 705q0 24 9 45.5t25 37t37 25t45 9.5t45.5 -9.5t37.5 -25t25 -37t9 -45.5t-9 -45.5t-25 -37.5t-37.5 -25t-45.5 -9t-45 9t-37 25t-25 37.5 t-9 45.5zM366 256q-23 -4 -54 -8.5t-59.5 -14.5t-48.5 -27.5t-20 -48.5q0 -25 12.5 -42.5t38.5 -17.5q46 0 78 22.5t53 50.5v86zM374 51q-21 -15 -38.5 -26.5t-35.5 -19.5t-38 -12.5t-47 -4.5q-36 0 -68 12t-56 33.5t-38 52t-14 68.5q0 39 16 68.5t42.5 51t60.5 36t70.5 24 t72 15t65.5 8.5q8 59 -10.5 82.5t-60.5 23.5q-35 0 -59 -16.5t-30 -53.5l-142 22q12 45 33 75t50.5 48t66 26t80.5 8q113 0 166.5 -49t53.5 -128v-278q0 -30 3 -59.5t17 -57.5h-144z" />
<glyph unicode="&#xe6;" horiz-adv-x="875" d="M691 338q0 24 -5 46.5t-16.5 40t-29.5 28t-45 10.5q-25 0 -43 -11t-29.5 -29t-17 -40.5t-6.5 -44.5h192zM836 162q-12 -42 -37 -74t-58 -54.5t-71.5 -34t-78.5 -11.5q-59 0 -108 22.5t-82 70.5q-38 -42 -86.5 -67.5t-99.5 -25.5q-36 0 -68 12t-56 33.5t-38 52t-14 68.5 q0 39 16 68.5t42.5 51t60.5 36t70.5 24t72 15t65.5 8.5q8 59 -10.5 82.5t-60.5 23.5q-35 0 -59 -16.5t-30 -53.5l-142 22q12 45 33 75t50.5 48t66 26t80.5 8q47 0 84.5 -13.5t76.5 -49.5q32 32 68.5 47.5t67.5 15.5q53 0 98.5 -14.5t78.5 -51.5t51 -100.5t17 -160.5h-342 q-2 -26 4.5 -52t21 -47.5t36 -35t50.5 -13.5q40 0 62.5 27.5t30.5 62.5zM366 256q-23 -4 -54 -8.5t-59.5 -14.5t-48.5 -27.5t-20 -48.5q0 -25 12.5 -42.5t38.5 -17.5q37 0 73 23.5t64 51.5z" />
<glyph unicode="&#xe7;" horiz-adv-x="558" d="M285 -232h-79l25 167h122zM519 181q-18 -88 -79 -140.5t-155 -52.5q-61 0 -107 25t-77 65.5t-46.5 93t-15.5 108.5t15.5 108.5t46 93.5t76.5 65.5t108 24.5q94 0 155 -52.5t79 -140.5l-134 -23q-4 20 -9.5 39t-16.5 34t-28.5 24.5t-45.5 9.5q-30 0 -48.5 -19t-28.5 -46.5 t-13.5 -59.5t-3.5 -58t3.5 -58t13.5 -60t28.5 -46.5t48.5 -18.5q28 0 45.5 9.5t28.5 24.5t16.5 34.5t9.5 39.5z" />
<glyph unicode="&#xe8;" horiz-adv-x="569" d="M355 638h-92l-103 140h136zM188 245q-2 -26 4.5 -52t21 -47.5t36 -35t50.5 -13.5q40 0 62.5 27.5t30.5 62.5l137 -25q-12 -42 -37 -74t-58 -54.5t-71.5 -34t-78.5 -11.5q-61 0 -107 25t-77 65.5t-46.5 93t-15.5 108.5t15.5 108.5t46 93.5t76.5 65.5t108 24.5 q53 0 98.5 -14.5t78.5 -51.5t51 -100.5t17 -160.5h-342zM385 338q0 24 -5 46.5t-16.5 40t-29.5 28t-45 10.5q-25 0 -43 -11t-29.5 -29t-17 -40.5t-6.5 -44.5h192z" />
<glyph unicode="&#xe9;" horiz-adv-x="569" d="M274 778h136l-103 -140h-92zM188 245q-2 -26 4.5 -52t21 -47.5t36 -35t50.5 -13.5q40 0 62.5 27.5t30.5 62.5l137 -25q-12 -42 -37 -74t-58 -54.5t-71.5 -34t-78.5 -11.5q-61 0 -107 25t-77 65.5t-46.5 93t-15.5 108.5t15.5 108.5t46 93.5t76.5 65.5t108 24.5 q53 0 98.5 -14.5t78.5 -51.5t51 -100.5t17 -160.5h-342zM385 338q0 24 -5 46.5t-16.5 40t-29.5 28t-45 10.5q-25 0 -43 -11t-29.5 -29t-17 -40.5t-6.5 -44.5h192z" />
<glyph unicode="&#xea;" horiz-adv-x="569" d="M472 638h-135l-56 63l-52 -63h-132l117 140h136zM188 245q-2 -26 4.5 -52t21 -47.5t36 -35t50.5 -13.5q40 0 62.5 27.5t30.5 62.5l137 -25q-12 -42 -37 -74t-58 -54.5t-71.5 -34t-78.5 -11.5q-61 0 -107 25t-77 65.5t-46.5 93t-15.5 108.5t15.5 108.5t46 93.5t76.5 65.5 t108 24.5q53 0 98.5 -14.5t78.5 -51.5t51 -100.5t17 -160.5h-342zM385 338q0 24 -5 46.5t-16.5 40t-29.5 28t-45 10.5q-25 0 -43 -11t-29.5 -29t-17 -40.5t-6.5 -44.5h192z" />
<glyph unicode="&#xeb;" horiz-adv-x="569" d="M473 630h-148v148h148v-148zM244 630h-148v148h148v-148zM188 245q-2 -26 4.5 -52t21 -47.5t36 -35t50.5 -13.5q40 0 62.5 27.5t30.5 62.5l137 -25q-12 -42 -37 -74t-58 -54.5t-71.5 -34t-78.5 -11.5q-61 0 -107 25t-77 65.5t-46.5 93t-15.5 108.5t15.5 108.5t46 93.5 t76.5 65.5t108 24.5q53 0 98.5 -14.5t78.5 -51.5t51 -100.5t17 -160.5h-342zM385 338q0 24 -5 46.5t-16.5 40t-29.5 28t-45 10.5q-25 0 -43 -11t-29.5 -29t-17 -40.5t-6.5 -44.5h192z" />
<glyph unicode="&#xec;" horiz-adv-x="257" d="M199 638h-92l-103 140h136zM203 0h-148v560h148v-560z" />
<glyph unicode="&#xed;" horiz-adv-x="257" d="M118 778h136l-103 -140h-92zM203 0h-148v560h148v-560z" />
<glyph unicode="&#xee;" horiz-adv-x="257" d="M316 638h-135l-56 63l-52 -63h-132l117 140h136zM203 0h-148v560h148v-560z" />
<glyph unicode="&#xef;" horiz-adv-x="257" d="M317 630h-148v148h148v-148zM88 630h-148v148h148v-148zM203 0h-148v560h148v-560z" />
<glyph unicode="&#xf0;" horiz-adv-x="570" d="M520 702l-103 -32q34 -40 56 -81t34.5 -80.5t18 -76.5t5.5 -68q1 -86 -14 -155.5t-45.5 -118.5t-77 -75.5t-109.5 -26.5q-61 0 -107 25t-77 65.5t-46.5 93t-15.5 108.5q0 46 11.5 96.5t38.5 92.5t71.5 69t111.5 27q27 0 52 -8.5t52 -28.5q-5 12 -13.5 26.5t-19.5 29 t-22.5 27.5t-21.5 23l-152 -47l-36 61l131 41q-19 17 -39.5 32t-42.5 29l134 28q17 -13 33.5 -26t32.5 -26l123 38zM285 97q30 0 48.5 18.5t28.5 46.5t13.5 60t3.5 58t-3.5 58t-13.5 59.5t-28.5 46.5t-48.5 19t-48.5 -19t-28.5 -46.5t-13.5 -59.5t-3.5 -58t3.5 -58t13.5 -60 t28.5 -46.5t48.5 -18.5z" />
<glyph unicode="&#xf1;" horiz-adv-x="566" d="M454 778q1 -24 -5.5 -48.5t-20 -45t-34.5 -33t-48 -12.5q-21 0 -39 5.5t-34 12t-30.5 12t-28.5 5.5q-15 0 -22.5 -10.5t-8.5 -24.5h-71q-2 24 5 48.5t21 44.5t34 33t46 13q21 0 39 -5t34 -11.5t31.5 -11.5t30.5 -5t22.5 9.5t9.5 23.5h69zM200 502q35 29 77.5 49.5 t89.5 20.5q23 0 49 -8t47.5 -28t36 -53.5t14.5 -85.5v-397h-148v337q0 17 -0.5 37t-6 37.5t-18 29.5t-36.5 12q-32 0 -58 -19t-47 -42v-392h-148v560h148v-58z" />
<glyph unicode="&#xf2;" horiz-adv-x="570" d="M355 638h-92l-103 140h136zM285 97q30 0 48.5 18.5t28.5 46.5t13.5 60t3.5 58t-3.5 58t-13.5 59.5t-28.5 46.5t-48.5 19t-48.5 -19t-28.5 -46.5t-13.5 -59.5t-3.5 -58t3.5 -58t13.5 -60t28.5 -46.5t48.5 -18.5zM285 -12q-61 0 -107 25t-77 65.5t-46.5 93t-15.5 108.5 t15.5 108.5t46 93.5t76.5 65.5t108 24.5q61 0 107.5 -24.5t77 -65.5t46 -93.5t15.5 -108.5t-15.5 -108.5t-46.5 -93t-77 -65.5t-107 -25z" />
<glyph unicode="&#xf3;" horiz-adv-x="570" d="M274 778h136l-103 -140h-92zM285 97q30 0 48.5 18.5t28.5 46.5t13.5 60t3.5 58t-3.5 58t-13.5 59.5t-28.5 46.5t-48.5 19t-48.5 -19t-28.5 -46.5t-13.5 -59.5t-3.5 -58t3.5 -58t13.5 -60t28.5 -46.5t48.5 -18.5zM285 -12q-61 0 -107 25t-77 65.5t-46.5 93t-15.5 108.5 t15.5 108.5t46 93.5t76.5 65.5t108 24.5q61 0 107.5 -24.5t77 -65.5t46 -93.5t15.5 -108.5t-15.5 -108.5t-46.5 -93t-77 -65.5t-107 -25z" />
<glyph unicode="&#xf4;" horiz-adv-x="570" d="M473 638h-135l-56 63l-52 -63h-132l117 140h136zM285 97q30 0 48.5 18.5t28.5 46.5t13.5 60t3.5 58t-3.5 58t-13.5 59.5t-28.5 46.5t-48.5 19t-48.5 -19t-28.5 -46.5t-13.5 -59.5t-3.5 -58t3.5 -58t13.5 -60t28.5 -46.5t48.5 -18.5zM285 -12q-61 0 -107 25t-77 65.5 t-46.5 93t-15.5 108.5t15.5 108.5t46 93.5t76.5 65.5t108 24.5q61 0 107.5 -24.5t77 -65.5t46 -93.5t15.5 -108.5t-15.5 -108.5t-46.5 -93t-77 -65.5t-107 -25z" />
<glyph unicode="&#xf5;" horiz-adv-x="570" d="M456 778q1 -24 -5.5 -48.5t-20 -45t-34.5 -33t-48 -12.5q-21 0 -39 5.5t-34 12t-30.5 12t-28.5 5.5q-15 0 -22.5 -10.5t-8.5 -24.5h-71q-2 24 5 48.5t21 44.5t34 33t46 13q21 0 39 -5t34 -11.5t31.5 -11.5t30.5 -5t22.5 9.5t9.5 23.5h69zM285 97q30 0 48.5 18.5 t28.5 46.5t13.5 60t3.5 58t-3.5 58t-13.5 59.5t-28.5 46.5t-48.5 19t-48.5 -19t-28.5 -46.5t-13.5 -59.5t-3.5 -58t3.5 -58t13.5 -60t28.5 -46.5t48.5 -18.5zM285 -12q-61 0 -107 25t-77 65.5t-46.5 93t-15.5 108.5t15.5 108.5t46 93.5t76.5 65.5t108 24.5q61 0 107.5 -24.5 t77 -65.5t46 -93.5t15.5 -108.5t-15.5 -108.5t-46.5 -93t-77 -65.5t-107 -25z" />
<glyph unicode="&#xf6;" horiz-adv-x="570" d="M474 630h-148v148h148v-148zM245 630h-148v148h148v-148zM285 97q30 0 48.5 18.5t28.5 46.5t13.5 60t3.5 58t-3.5 58t-13.5 59.5t-28.5 46.5t-48.5 19t-48.5 -19t-28.5 -46.5t-13.5 -59.5t-3.5 -58t3.5 -58t13.5 -60t28.5 -46.5t48.5 -18.5zM285 -12q-61 0 -107 25 t-77 65.5t-46.5 93t-15.5 108.5t15.5 108.5t46 93.5t76.5 65.5t108 24.5q61 0 107.5 -24.5t77 -65.5t46 -93.5t15.5 -108.5t-15.5 -108.5t-46.5 -93t-77 -65.5t-107 -25z" />
<glyph unicode="&#xf7;" horiz-adv-x="584" d="M234 493h115v-111h-115v111zM234 111h115v-111h-115v111zM534 192h-484v109h484v-109z" />
<glyph unicode="&#xf8;" horiz-adv-x="570" d="M214 148q4 -8 9.5 -17t13 -16.5t19 -12.5t29.5 -5q30 0 48.5 18.5t28.5 46.5t13.5 60t3.5 58q0 7 -1 22t-1 31zM527 572l38 -42l-73 -83q20 -37 29.5 -79.5t9.5 -87.5q0 -56 -15.5 -108.5t-46.5 -93t-77 -65.5t-107 -25q-57 0 -100 21t-70 53l-69 -74l-39 38l75 81 q-22 41 -32.5 84.5t-10.5 88.5q0 56 15.5 108.5t46 93.5t76.5 65.5t108 24.5q58 0 102 -22t74 -58zM363 396q-5 12 -11.5 24t-15.5 21.5t-21.5 15.5t-29.5 6q-30 0 -48.5 -19t-28.5 -46.5t-13.5 -59.5t-3.5 -58q0 -17 1 -31.5t3 -38.5z" />
<glyph unicode="&#xf9;" horiz-adv-x="566" d="M353 638h-92l-103 140h136zM366 58q-35 -29 -77.5 -49.5t-89.5 -20.5q-23 0 -49 8t-47.5 28t-36 53.5t-14.5 85.5v397h148v-337q0 -17 0.5 -37t6 -37.5t18 -29.5t36.5 -12q32 0 58 19t47 42v392h148v-560h-148v58z" />
<glyph unicode="&#xfa;" horiz-adv-x="566" d="M272 778h136l-103 -140h-92zM366 58q-35 -29 -77.5 -49.5t-89.5 -20.5q-23 0 -49 8t-47.5 28t-36 53.5t-14.5 85.5v397h148v-337q0 -17 0.5 -37t6 -37.5t18 -29.5t36.5 -12q32 0 58 19t47 42v392h148v-560h-148v58z" />
<glyph unicode="&#xfb;" horiz-adv-x="566" d="M471 638h-135l-56 63l-52 -63h-132l117 140h136zM366 58q-35 -29 -77.5 -49.5t-89.5 -20.5q-23 0 -49 8t-47.5 28t-36 53.5t-14.5 85.5v397h148v-337q0 -17 0.5 -37t6 -37.5t18 -29.5t36.5 -12q32 0 58 19t47 42v392h148v-560h-148v58z" />
<glyph unicode="&#xfc;" horiz-adv-x="566" d="M472 630h-148v148h148v-148zM243 630h-148v148h148v-148zM366 58q-35 -29 -77.5 -49.5t-89.5 -20.5q-23 0 -49 8t-47.5 28t-36 53.5t-14.5 85.5v397h148v-337q0 -17 0.5 -37t6 -37.5t18 -29.5t36.5 -12q32 0 58 19t47 42v392h148v-560h-148v58z" />
<glyph unicode="&#xfd;" horiz-adv-x="528" d="M253 778h136l-103 -140h-92zM312 -45q-14 -38 -28.5 -68t-35.5 -50.5t-51.5 -31.5t-74.5 -11q-46 0 -95 11v127q17 -6 31.5 -10t32.5 -4q25 0 42.5 7t30 19.5t21 30t15.5 39.5l-200 546h160l113 -369l103 369h152z" />
<glyph unicode="&#xfe;" horiz-adv-x="584" d="M202 163q17 -26 40 -46t56 -20t53.5 18t31 45t14 58t3.5 56q0 23 -4 52t-15 54.5t-30 42.5t-50 17q-32 0 -55.5 -19t-43.5 -42v-216zM202 505q31 28 62 47.5t76 19.5q30 0 66 -14.5t67 -47t51.5 -85.5t20.5 -131q0 -89 -18 -147.5t-48 -94t-69.5 -50t-81.5 -14.5 q-35 0 -65 14.5t-61 37.5v-231h-148v969h148v-273z" />
<glyph unicode="&#xff;" horiz-adv-x="528" d="M453 630h-148v148h148v-148zM224 630h-148v148h148v-148zM312 -45q-14 -38 -28.5 -68t-35.5 -50.5t-51.5 -31.5t-74.5 -11q-46 0 -95 11v127q17 -6 31.5 -10t32.5 -4q25 0 42.5 7t30 19.5t21 30t15.5 39.5l-200 546h160l113 -369l103 369h152z" />
<glyph unicode="&#x131;" horiz-adv-x="257" d="M203 0h-148v560h148v-560z" />
<glyph unicode="&#x141;" horiz-adv-x="557" d="M388 572v-102l-178 -102v-236h324v-132h-480v302l-80 -45v101l80 45v375h156v-307z" />
<glyph unicode="&#x142;" horiz-adv-x="257" d="M285 514v-93l-82 -43v-378h-148v323l-83 -42v96l83 40v361h148v-306z" />
<glyph unicode="&#x152;" horiz-adv-x="1072" d="M360 667q-50 0 -81.5 -29.5t-49 -72t-24 -91t-6.5 -85.5q0 -38 6.5 -86t24 -90.5t49 -72t81.5 -29.5t81.5 29.5t49 72t24 90.5t6.5 86q0 37 -6.5 85.5t-24 91t-49 72t-81.5 29.5zM523 52q-40 -32 -80 -48t-83 -16q-83 0 -143.5 35t-100 92t-58.5 128.5t-19 145.5 q0 73 19 145t58.5 129t100 92t143.5 35q44 0 83.5 -15t79.5 -46v49h484v-132h-337v-186h281v-132h-281v-196h356v-132h-503v52z" />
<glyph unicode="&#x153;" horiz-adv-x="908" d="M724 338q0 24 -5 46.5t-16.5 40t-29.5 28t-45 10.5q-25 0 -43 -11t-29.5 -29t-17 -40.5t-6.5 -44.5h192zM527 245q-2 -26 4.5 -52t21 -47.5t36 -35t50.5 -13.5q40 0 62.5 27.5t30.5 62.5l137 -25q-12 -42 -37 -74t-58 -54.5t-71.5 -34t-78.5 -11.5q-48 0 -92 20t-76 60 q-32 -41 -76 -60.5t-95 -19.5q-61 0 -107 25t-77 65.5t-46.5 93t-15.5 108.5t15.5 108.5t46 93.5t76.5 65.5t108 24.5q50 0 97 -20.5t80 -59.5q32 40 76 59t86 21q53 0 98.5 -14.5t78.5 -51.5t51 -100.5t17 -160.5h-342zM285 97q34 0 54.5 17.5t32 44.5t15.5 58.5t4 59.5 q0 27 -4 59.5t-15.5 60.5t-32 47t-54.5 19q-30 0 -48.5 -19t-28.5 -46.5t-13.5 -59.5t-3.5 -58t3.5 -58t13.5 -60t28.5 -46.5t48.5 -18.5z" />
<glyph unicode="&#x160;" horiz-adv-x="617" d="M374 856h-136l-117 140h132l52 -63l56 63h135zM417 549q-6 20 -14.5 39.5t-21.5 35t-30.5 25t-41.5 9.5q-19 0 -36.5 -6.5t-30.5 -18.5t-20.5 -28.5t-7.5 -36.5q0 -38 27 -58.5t68 -34t88 -27.5t88 -39.5t68 -68.5t27 -115q0 -36 -14.5 -77.5t-46 -77t-81.5 -59 t-122 -23.5q-111 0 -186 55t-93 169l156 23q5 -25 14.5 -46t24 -36.5t35 -24t48.5 -8.5q46 0 79 24.5t33 74.5q0 39 -27 60.5t-68 36t-88 28t-88 37.5t-68 63.5t-27 105.5q0 52 20.5 96.5t55.5 76t80.5 49.5t96.5 18q49 0 91.5 -15.5t75 -43.5t52.5 -68t25 -89z" />
<glyph unicode="&#x161;" horiz-adv-x="487" d="M309 638h-136l-117 140h132l52 -63l56 63h135zM309 396q-5 29 -18 48t-46 19q-26 0 -43 -17.5t-17 -44.5q0 -24 20 -36t50 -21t65.5 -18.5t65.5 -27.5t50 -49t20 -84q0 -45 -17.5 -78t-46.5 -55t-67.5 -33t-81.5 -11q-87 0 -139.5 42t-63.5 130l139 15q2 -30 18.5 -54 t50.5 -24q28 0 50 14t22 46q0 24 -20 36t-50 20t-65.5 17t-65.5 27t-50 49.5t-20 86.5q0 42 17 75.5t45.5 56.5t65.5 35t78 12q37 0 69.5 -11t58 -32t43 -50.5t23.5 -65.5z" />
<glyph unicode="&#x178;" horiz-adv-x="653" d="M515 848h-148v148h148v-148zM286 848h-148v148h148v-148zM403 314v-314h-156v314l-255 464h166l168 -342l174 342h161z" />
<glyph unicode="&#x17d;" horiz-adv-x="569" d="M350 856h-136l-117 140h132l52 -63l56 63h135zM538 652l-328 -520h328v-132h-507v122l328 524h-317v132h496v-126z" />
<glyph unicode="&#x17e;" horiz-adv-x="524" d="M328 638h-136l-117 140h132l52 -63l56 63h135zM485 455l-261 -338h261v-117h-446v100l257 343h-240v117h429v-105z" />
<glyph unicode="&#x192;" d="M491 358h-98l-38 -356q-6 -53 -13.5 -89.5t-26.5 -59.5t-53.5 -33.5t-93.5 -10.5h-86v132h30q28 0 45.5 -1t28 4t15.5 20t8 47l36 347h-77v111h89l12 116q5 49 16.5 85.5t32.5 60.5t54.5 35.5t81.5 11.5h87v-132h-81q-9 0 -16 0.5t-12 -3.5t-8.5 -16.5t-6.5 -37.5 l-12 -120h86v-111z" />
<glyph unicode="&#x2c6;" horiz-adv-x="531" d="M453 638h-135l-56 63l-52 -63h-132l117 140h136z" />
<glyph unicode="&#x2c7;" horiz-adv-x="531" d="M331 638h-136l-117 140h132l52 -63l56 63h135z" />
<glyph unicode="&#x2c9;" horiz-adv-x="576" d="M498 673h-420v105h420v-105z" />
<glyph unicode="&#x2d8;" horiz-adv-x="499" d="M142 790q13 -32 44 -48.5t63 -16.5t63.5 16.5t44.5 48.5h64q0 -33 -15 -63t-39 -53t-55 -36.5t-63 -13.5t-62.5 13.5t-54.5 36.5t-39 53t-15 63h64z" />
<glyph unicode="&#x2d9;" horiz-adv-x="303" d="M226 630h-148v148h148v-148z" />
<glyph unicode="&#x2da;" horiz-adv-x="389" d="M148 705q0 -20 13.5 -33.5t32.5 -13.5q20 0 33.5 13.5t13.5 33.5t-13.5 33.5t-33.5 13.5q-19 0 -32.5 -13.5t-13.5 -33.5zM78 705q0 24 9 45.5t25 37t37 25t45 9.5t45.5 -9.5t37.5 -25t25 -37t9 -45.5t-9 -45.5t-25 -37.5t-37.5 -25t-45.5 -9t-45 9t-37 25t-25 37.5 t-9 45.5z" />
<glyph unicode="&#x2db;" horiz-adv-x="343" d="M265 -143q-21 -22 -45.5 -35t-56.5 -13q-38 0 -63 25t-25 63q0 34 22.5 61.5t51.5 41.5h77v-4q-11 -4 -24.5 -10.5t-24.5 -15.5t-18.5 -20.5t-7.5 -24.5q0 -14 12 -24t26 -10q19 0 39 10t37 18v-62z" />
<glyph unicode="&#x2dc;" horiz-adv-x="498" d="M420 778q1 -24 -5.5 -48.5t-20 -45t-34.5 -33t-48 -12.5q-21 0 -39 5.5t-34 12t-30.5 12t-28.5 5.5q-15 0 -22.5 -10.5t-8.5 -24.5h-71q-2 24 5 48.5t21 44.5t34 33t46 13q21 0 39 -5t34 -11.5t31.5 -11.5t30.5 -5t22.5 9.5t9.5 23.5h69z" />
<glyph unicode="&#x2dd;" horiz-adv-x="545" d="M468 778l-104 -140h-91l58 140h137zM273 778l-104 -140h-91l58 140h137z" />
<glyph unicode="&#x3a9;" horiz-adv-x="790" d="M196 112q-26 24 -50.5 56t-44 72t-31 86.5t-11.5 100.5q0 74 24.5 139t69.5 114t107.5 77t137.5 28q80 0 142 -31.5t104 -81.5t63.5 -112.5t21.5 -125.5q0 -55 -12 -103t-31.5 -89t-44.5 -73.5t-51 -56.5v-3h155v-109h-292v81q27 17 52 45t44.5 68t31 92.5t11.5 118.5 q0 52 -12.5 100t-37 85.5t-61 60t-84.5 22.5q-46 0 -83 -20.5t-63.5 -57t-40.5 -86.5t-14 -109q0 -60 11.5 -111.5t30.5 -92t44.5 -70t52.5 -45.5v-81h-292v109h153v3z" />
<glyph unicode="&#x3bc;" horiz-adv-x="566" d="M366 58q-36 -29 -80.5 -49.5t-85.5 -20.5v-179h-148v751h148v-337q0 -17 0.5 -37t6 -37.5t18 -29.5t36.5 -12q32 0 58 19t47 42v392h148v-560h-148v58z" />
<glyph unicode="&#x3c0;" horiz-adv-x="666" d="M559 466v-301q0 -63 4.5 -101t10.5 -64h-131q-10 17 -14.5 57.5t-4.5 100.5v308h-159q-2 -46 -8 -109t-15.5 -128t-21.5 -126t-27 -103h-132q15 48 27.5 109t22 125t15 124.5t6.5 107.5q-42 0 -67.5 -3t-43.5 -9l-16 90q22 16 65.5 26t114.5 10h465l-11 -114h-80z" />
<glyph unicode="&#x2013;" horiz-adv-x="500" d="M500 358v-124h-500v124h500z" />
<glyph unicode="&#x2014;" horiz-adv-x="1000" d="M1000 358v-124h-1000v124h1000z" />
<glyph unicode="&#x2018;" horiz-adv-x="224" d="M38 626l85 164l61 -26l-49 -132h51v-148h-148v142z" />
<glyph unicode="&#x2019;" horiz-adv-x="224" d="M186 636l-85 -164l-61 26l49 132h-51v148h148v-142z" />
<glyph unicode="&#x201a;" horiz-adv-x="224" d="M186 6l-85 -164l-61 26l49 132h-51v148h148v-142z" />
<glyph unicode="&#x201c;" horiz-adv-x="409" d="M38 626l85 164l61 -26l-49 -132h51v-148h-148v142zM223 626l85 164l61 -26l-49 -132h51v-148h-148v142z" />
<glyph unicode="&#x201d;" horiz-adv-x="409" d="M371 636l-85 -164l-61 26l49 132h-51v148h148v-142zM186 636l-85 -164l-61 26l49 132h-51v148h148v-142z" />
<glyph unicode="&#x201e;" horiz-adv-x="409" d="M371 6l-85 -164l-61 26l49 132h-51v148h148v-142zM186 6l-85 -164l-61 26l49 132h-51v148h148v-142z" />
<glyph unicode="&#x2020;" d="M385 560h182v-123h-182v-628h-148v628h-182v123h182v218h148v-218z" />
<glyph unicode="&#x2021;" d="M385 587h182v-123h-182v-341h182v-123h-182v-191h-148v191h-182v123h182v341h-182v123h182v191h148v-191z" />
<glyph unicode="&#x2022;" horiz-adv-x="453" d="M414 385q0 -39 -15 -73.5t-40.5 -60t-59.5 -40t-73 -14.5t-73 14.5t-59.5 40t-40 60t-14.5 73.5q-1 39 13.5 73t40 59.5t60 40t73.5 14.5t73 -14.5t59.5 -40t40.5 -59.5t15 -73z" />
<glyph unicode="&#x2026;" horiz-adv-x="1000" d="M907 0h-148v148h148v-148zM574 0h-148v148h148v-148zM241 0h-148v148h148v-148z" />
<glyph unicode="&#x2030;" horiz-adv-x="1249" d="M670 778l-394 -778h-94l394 778h94zM1053 299q-20 0 -30.5 -11t-15.5 -28t-5.5 -37.5t-0.5 -40.5q0 -18 1.5 -36.5t6.5 -33.5t15.5 -24.5t28.5 -9.5t28.5 9.5t15.5 24.5t6.5 33.5t1.5 36.5q0 20 -0.5 40.5t-5.5 37.5t-15.5 28t-30.5 11zM1053 389q49 0 81.5 -18 t51.5 -47.5t26.5 -66.5t7.5 -75q0 -37 -9 -72t-29 -62t-52 -43.5t-77 -16.5t-77 16.5t-52 43.5t-29 62t-9 72q0 38 7.5 75t26.5 66.5t51.5 47.5t81.5 18zM196 700q-20 0 -30.5 -11t-15.5 -28t-5.5 -37.5t-0.5 -40.5q0 -18 1.5 -36.5t6.5 -33.5t15.5 -24.5t28.5 -9.5 t28.5 9.5t15.5 24.5t6.5 33.5t1.5 36.5q0 20 -0.5 40.5t-5.5 37.5t-15.5 28t-30.5 11zM196 790q49 0 81.5 -18t51.5 -47.5t26.5 -66.5t7.5 -75q0 -37 -9 -72t-29 -62t-52 -43.5t-77 -16.5t-77 16.5t-52 43.5t-29 62t-9 72q0 38 7.5 75t26.5 66.5t51.5 47.5t81.5 18zM656 299 q-20 0 -30.5 -11t-15.5 -28t-5.5 -37.5t-0.5 -40.5q0 -18 1.5 -36.5t6.5 -33.5t15.5 -24.5t28.5 -9.5t28.5 9.5t15.5 24.5t6.5 33.5t1.5 36.5q0 20 -0.5 40.5t-5.5 37.5t-15.5 28t-30.5 11zM656 389q49 0 81.5 -18t51.5 -47.5t26.5 -66.5t7.5 -75q0 -37 -9 -72t-29 -62 t-52 -43.5t-77 -16.5t-77 16.5t-52 43.5t-29 62t-9 72q0 38 7.5 75t26.5 66.5t51.5 47.5t81.5 18z" />
<glyph unicode="&#x2039;" horiz-adv-x="279" d="M39 296l92 223h109l-84 -223l84 -223h-109z" />
<glyph unicode="&#x203a;" horiz-adv-x="279" d="M148 73h-109l84 223l-84 223h109l92 -223z" />
<glyph unicode="&#x2044;" horiz-adv-x="177" d="M333 778l-394 -778h-94l394 778h94z" />
<glyph unicode="&#x20ac;" d="M573 615q-19 18 -56.5 33t-96.5 15q-73 0 -113.5 -35t-51.5 -102h283l-36 -103h-261q-1 -7 -1 -14.5v-15.5v-19.5t1 -16.5h237l-36 -103h-187q23 -140 167 -140q56 0 93.5 14.5t57.5 32.5v-136q-16 -12 -59.5 -24t-113.5 -12q-116 0 -191.5 63.5t-97.5 201.5h-91l36 103 h44q-1 7 -1 15.5v19.5v16.5t1 14.5h-80l36 103h54q10 60 32.5 108.5t58 83t85 53t114.5 18.5q63 0 108.5 -13.5t64.5 -25.5v-135z" />
<glyph unicode="&#x2113;" horiz-adv-x="568" d="M247 394q60 67 97.5 136t37.5 131q0 45 -13.5 70t-48.5 25q-13 0 -26 -8.5t-23.5 -29t-17 -55.5t-6.5 -87v-182zM547 145q-43 -83 -103 -118t-126 -35q-50 0 -85.5 15t-59 40t-36.5 58.5t-17 70.5q0 8 -1 12q-14 -10 -28.5 -22t-29.5 -23l-34 72q24 20 47 38t44 38v281 q0 74 15.5 127t42.5 87t62.5 50t75.5 16t69 -15.5t48 -41.5t28 -62t9 -76q0 -99 -60 -194t-161 -192l1 -45q2 -64 30.5 -95t70.5 -31q23 0 44 9t39 23.5t33 32.5t27 37z" />
<glyph unicode="&#x2122;" horiz-adv-x="1000" d="M404 690h-119v-316h-105v316h-119v88h343v-88zM919 374h-100v274h-2l-101 -274h-60l-101 274h-2v-274h-100v404h142l91 -229l91 229h142v-404z" />
<glyph unicode="&#x2126;" horiz-adv-x="790" d="M196 112q-26 24 -50.5 56t-44 72t-31 86.5t-11.5 100.5q0 74 24.5 139t69.5 114t107.5 77t137.5 28q80 0 142 -31.5t104 -81.5t63.5 -112.5t21.5 -125.5q0 -55 -12 -103t-31.5 -89t-44.5 -73.5t-51 -56.5v-3h155v-109h-292v81q27 17 52 45t44.5 68t31 92.5t11.5 118.5 q0 52 -12.5 100t-37 85.5t-61 60t-84.5 22.5q-46 0 -83 -20.5t-63.5 -57t-40.5 -86.5t-14 -109q0 -60 11.5 -111.5t30.5 -92t44.5 -70t52.5 -45.5v-81h-292v109h153v3z" />
<glyph unicode="&#x212e;" horiz-adv-x="967" d="M765 626q0 15 -11 26q-53 52 -122 83t-148 31q-80 0 -149.5 -32t-122.5 -86q-11 -11 -11 -27v-215q0 -2 2 -4.5t4 -2.5h553q3 0 4 2.5t1 4.5v220zM207 378q-6 0 -6 -5v-218q0 -13 10 -25q53 -55 122.5 -87t150.5 -32q87 0 160.5 36t126.5 97h64q-60 -71 -152 -113 t-201 -42q-92 0 -173 31.5t-141.5 85.5t-95.5 127t-35 156t35 156t95.5 127t141.5 85.5t173 31.5q93 0 174 -31.5t141.5 -85.5t95.5 -127t35 -156v-11h-721z" />
<glyph unicode="&#x2202;" horiz-adv-x="636" d="M286 105q32 0 58 21t45 54.5t31 75.5t17 83q-4 14 -14.5 31t-27 31.5t-38 24.5t-48.5 10q-29 0 -53.5 -15t-42.5 -40.5t-28 -59.5t-10 -71q0 -30 8 -56.5t22 -46t34.5 -31t45.5 -11.5h1zM76 810q13 10 31.5 21t43.5 20.5t56.5 16t70.5 6.5q60 0 115 -26.5t97 -79.5 t67 -132t25 -184q0 -102 -20.5 -186.5t-60.5 -145t-97.5 -94t-131.5 -33.5q-59 0 -102 24t-71.5 62t-42.5 84.5t-14 91.5q0 66 19 119.5t51.5 91t76 57.5t93.5 20q35 0 63 -10t49 -24.5t35 -30t20 -25.5h1q1 7 1 18.5v19.5q0 55 -14 104t-39 86.5t-60 59.5t-77 22 q-52 0 -88 -17.5t-58 -35.5z" />
<glyph unicode="&#x2206;" horiz-adv-x="730" d="M554 109l-126 336q-6 22 -15 49t-18.5 54.5t-17.5 52.5t-13 43h-4q-3 -15 -10 -36.5t-15.5 -46.5t-17 -51t-15.5 -48l-133 -353h385zM30 79l258 711h160l251 -709v-81h-669v79z" />
<glyph unicode="&#x220f;" horiz-adv-x="800" d="M657 651v-758h-133v758h-249v-758h-133v758h-115v122h744v-122h-114z" />
<glyph unicode="&#x2211;" horiz-adv-x="620" d="M26 -107v86l272 354l-262 346v94h545v-114h-364v-4l232 -300l-257 -334v-4h407v-124h-573z" />
<glyph unicode="&#x2212;" horiz-adv-x="584" d="M50 301h484v-109h-484v109z" />
<glyph unicode="&#x2215;" horiz-adv-x="177" d="M333 778l-394 -778h-94l394 778h94z" />
<glyph unicode="&#x2219;" horiz-adv-x="311" d="M230 173h-148v148h148v-148z" />
<glyph unicode="&#x221a;" horiz-adv-x="657" d="M416 -156h-109l-167 487l-82 -32l-23 75l185 75l119 -360q6 -26 12 -50.5t10 -42.5l2 -1q3 18 7 44.5t10 55.5l191 831h94z" />
<glyph unicode="&#x221e;" horiz-adv-x="864" d="M630 430q-26 0 -48 -12t-41.5 -29t-36 -36.5t-29.5 -34.5q25 -32 45.5 -53.5t39 -35.5t36.5 -20t39 -6q24 0 42 10t30.5 26t19 35.5t6.5 38.5q0 52 -28 84.5t-74 32.5h-1zM238 203q24 0 45 9.5t39.5 25t36 34.5t33.5 38q-17 23 -34 44.5t-36 38.5t-41 27t-49 10 q-48 0 -75 -33.5t-27 -83.5q0 -46 30 -78t77 -32h1zM809 319q0 -45 -15 -80t-39.5 -59.5t-56.5 -37.5t-66 -13q-24 0 -48 6t-48 21t-49.5 39t-53.5 60q-22 -26 -44 -49t-47 -40t-53 -27t-62 -10t-65.5 13.5t-55.5 38t-38.5 58.5t-14.5 75t14 75.5t38.5 59.5t58 39t72.5 14 q62 0 109.5 -34.5t91.5 -89.5q18 20 38 42t44 40.5t53.5 30t66.5 11.5q36 0 67.5 -13t54 -37t35.5 -57.5t13 -74.5v-1z" />
<glyph unicode="&#x222b;" horiz-adv-x="434" d="M396 849q-8 4 -18.5 7t-21.5 3q-16 0 -30.5 -6.5t-24.5 -21.5q-19 -23 -25.5 -69.5t-6.5 -117.5q0 -68 2.5 -132t6 -129t6 -132.5t2.5 -140.5q0 -81 -11.5 -135.5t-30.5 -86.5q-22 -42 -60 -60t-79 -18q-26 0 -49 6t-35 12l17 96q8 -4 20.5 -8t28.5 -4q14 0 27 5t22 17 q15 20 23 59.5t8 115.5q0 75 -2.5 143.5t-5.5 134.5t-5.5 132.5t-2.5 136.5q0 48 3.5 86t11.5 68t20.5 53t30.5 42q23 26 57 37.5t69 11.5q21 0 39.5 -4t28.5 -9z" />
<glyph unicode="&#x2248;" horiz-adv-x="613" d="M568 248q-26 -48 -63.5 -80t-86.5 -32q-34 0 -61 11t-64 33q-26 16 -48 27t-48 11q-19 0 -34 -7t-27.5 -18t-23 -26t-20.5 -30l-49 44q25 49 67 81t93 32q41 0 69 -14.5t49 -26.5q27 -15 49 -27.5t49 -12.5q33 0 55.5 21.5t45.5 58.5zM568 454q-26 -50 -63.5 -82 t-85.5 -32q-34 0 -61 11t-65 34q-25 15 -47 26t-50 11q-18 0 -33 -7t-27.5 -18t-23 -25.5t-20.5 -29.5l-49 44q25 49 67 81t93 32q41 0 69 -14.5t50 -27.5q30 -17 50.5 -28t46.5 -11q32 0 55 21.5t46 58.5z" />
<glyph unicode="&#x2260;" horiz-adv-x="613" d="M405 468h154v-79h-184l-67 -151h251v-78h-281l-56 -127l-61 26l45 101h-152v78h182l66 151h-248v79h278l55 124l62 -25z" />
<glyph unicode="&#x2264;" horiz-adv-x="613" d="M55 -12v80h505v-80h-505zM60 357v85l496 247v-92l-418 -196v-2l418 -198v-91z" />
<glyph unicode="&#x2265;" horiz-adv-x="613" d="M56 -12v80h502v-80h-502zM558 441v-84l-496 -247v91l417 197v3l-418 196v92z" />
<glyph unicode="&#x25ca;" horiz-adv-x="656" d="M351 652q-6 15 -12 33t-9 32h-3q-4 -15 -9.5 -31.5t-12.5 -33.5l-131 -263l132 -274q6 -17 11.5 -34t7.5 -28h5q3 12 8.5 31.5t10.5 28.5l133 270zM379 -54h-107l-216 440l221 440h107l216 -440z" />
<glyph unicode="&#xe000;" horiz-adv-x="560" d="M0 560h560v-560h-560v560z" />
</font>
</defs>
</svg>
